<svg width="20" height="20" viewBox="0 0 20 20" fill="none" xmlns="http://www.w3.org/2000/svg">
<path d="M7.39014 19.9615H5.12646C2.67101 19.9615 0.67334 17.9639 0.67334 15.5084V9.42249C0.67334 6.96703 2.67101 4.96936 5.12646 4.96936H15.2202C17.6757 4.96936 19.6733 6.96703 19.6733 9.42249V11.649C19.6733 12.059 19.3411 12.3912 18.9312 12.3912C18.5212 12.3912 18.189 12.059 18.189 11.649V9.42249C18.189 7.78552 16.8572 6.45374 15.2202 6.45374H5.12646C3.4895 6.45374 2.15771 7.78552 2.15771 9.42249V15.5084C2.15771 17.1454 3.4895 18.4772 5.12646 18.4772H7.39014C7.80005 18.4772 8.13232 18.8095 8.13232 19.2194C8.13232 19.6293 7.80005 19.9615 7.39014 19.9615ZM19.6733 17.6979V15.7376C19.6733 14.4858 18.6549 13.4674 17.4031 13.4674H15.4429C15.033 13.4674 14.7007 13.7997 14.7007 14.2096C14.7007 14.6195 15.033 14.9518 15.4429 14.9518H17.4031C17.8364 14.9518 18.189 15.3043 18.189 15.7376V17.6979C18.189 18.1078 18.5212 18.4401 18.9312 18.4401C19.3411 18.4401 19.6733 18.1078 19.6733 17.6979ZM17.0926 17.2453C17.3756 16.9488 17.3648 16.479 17.0684 16.1959C16.7719 15.9128 16.3021 15.9237 16.019 16.2201C14.6493 17.6545 12.7261 18.4772 10.7428 18.4772H10.396C9.98609 18.4772 9.65381 18.8095 9.65381 19.2194C9.65381 19.6293 9.98609 19.9615 10.396 19.9615H10.7428C13.1297 19.9615 15.4441 18.9715 17.0926 17.2453ZM5.53467 8.45764C5.0223 8.45764 4.60693 8.87301 4.60693 9.38538C4.60693 9.89775 5.0223 10.3131 5.53467 10.3131C6.04704 10.3131 6.4624 9.89775 6.4624 9.38538C6.4624 8.87301 6.04704 8.45764 5.53467 8.45764ZM8.72607 8.45764C8.21371 8.45764 7.79834 8.87301 7.79834 9.38538C7.79834 9.89775 8.21371 10.3131 8.72607 10.3131C9.23844 10.3131 9.65381 9.89775 9.65381 9.38538C9.65381 8.87301 9.23844 8.45764 8.72607 8.45764ZM11.9175 8.45764C11.4051 8.45764 10.9897 8.87301 10.9897 9.38538C10.9897 9.89775 11.4051 10.3131 11.9175 10.3131C12.4298 10.3131 12.8452 9.89775 12.8452 9.38538C12.8452 8.87301 12.4298 8.45764 11.9175 8.45764ZM5.53467 11.649C5.0223 11.649 4.60693 12.0644 4.60693 12.5768C4.60693 13.0892 5.0223 13.5045 5.53467 13.5045C6.04704 13.5045 6.4624 13.0892 6.4624 12.5768C6.4624 12.0644 6.04704 11.649 5.53467 11.649ZM5.53467 14.8405C5.0223 14.8405 4.60693 15.2558 4.60693 15.7682C4.60693 16.2806 5.0223 16.6959 5.53467 16.6959C6.04704 16.6959 6.4624 16.2806 6.4624 15.7682C6.4624 15.2558 6.04704 14.8405 5.53467 14.8405ZM8.72607 11.649C8.21371 11.649 7.79834 12.0644 7.79834 12.5768C7.79834 13.0892 8.21371 13.5045 8.72607 13.5045C9.23844 13.5045 9.65381 13.0892 9.65381 12.5768C9.65381 12.0644 9.23844 11.649 8.72607 11.649ZM8.72607 14.8405C8.21371 14.8405 7.79834 15.2558 7.79834 15.7682C7.79834 16.2806 8.21371 16.6959 8.72607 16.6959C9.23844 16.6959 9.65381 16.2806 9.65381 15.7682C9.65381 15.2558 9.23844 14.8405 8.72607 14.8405ZM11.9175 11.649C11.4051 11.649 10.9897 12.0644 10.9897 12.5768C10.9897 13.0892 11.4051 13.5045 11.9175 13.5045C12.4298 13.5045 12.8452 13.0892 12.8452 12.5768C12.8452 12.0644 12.4298 11.649 11.9175 11.649Z" fill="#100DB1"/>
<path d="M7.42725 3.9303C7.01734 3.9303 6.68506 3.59802 6.68506 3.18811C6.68506 2.77887 6.35211 2.44592 5.94287 2.44592C5.53363 2.44592 5.20068 2.77887 5.20068 3.18811C5.20068 3.59802 4.86841 3.9303 4.4585 3.9303C4.04859 3.9303 3.71631 3.59802 3.71631 3.18811C3.71631 1.96038 4.71514 0.961548 5.94287 0.961548C7.1706 0.961548 8.16943 1.96038 8.16943 3.18811C8.16943 3.59802 7.83716 3.9303 7.42725 3.9303ZM16.7046 3.18811C16.7046 1.96038 15.7058 0.961548 14.478 0.961548C13.2503 0.961548 12.2515 1.96038 12.2515 3.18811C12.2515 3.59802 12.5837 3.9303 12.9937 3.9303C13.4036 3.9303 13.7358 3.59802 13.7358 3.18811C13.7358 2.77887 14.0688 2.44592 14.478 2.44592C14.8873 2.44592 15.2202 2.77887 15.2202 3.18811C15.2202 3.59802 15.5525 3.9303 15.9624 3.9303C16.3723 3.9303 16.7046 3.59802 16.7046 3.18811ZM15.1089 8.45764C14.5965 8.45764 14.1812 8.87301 14.1812 9.38538C14.1812 9.89775 14.5965 10.3131 15.1089 10.3131C15.6213 10.3131 16.0366 9.89775 16.0366 9.38538C16.0366 8.87301 15.6213 8.45764 15.1089 8.45764Z" fill="#F80D38"/>
</svg>
