<svg width="12" height="13" viewBox="0 0 12 13" fill="none" xmlns="http://www.w3.org/2000/svg">
<path d="M6.60461 12.3063L11.8112 6.9644C12.0629 6.70883 12.0629 6.29117 11.8112 6.03286L6.60461 0.693734C6.35553 0.435422 5.94843 0.435422 5.69669 0.693734L5.10211 1.30377C4.845 1.56482 4.85034 1.99074 5.11283 2.24629L8.34015 5.40085H0.642785C0.28658 5.40085 0 5.69488 0 6.06034V6.93966C0 7.30512 0.28658 7.59915 0.642785 7.59915H8.34015L5.11283 10.7537C4.85303 11.0093 4.84767 11.4352 5.10211 11.6962L5.69669 12.3063C5.94576 12.5646 6.35286 12.5646 6.60461 12.3063Z" fill="#151516"/>
</svg>
