<svg width="19" height="32" viewBox="0 0 19 32" fill="none" xmlns="http://www.w3.org/2000/svg">
<path d="M13.5147 31.3071C13.7349 30.9117 13.8779 30.4784 14.1367 30.102C16.4767 26.839 16.9348 23.156 16.5825 19.3629C16.4617 18.0569 15.9646 16.6862 15.2852 15.5376C13.392 12.235 10.8262 9.5134 7.56895 7.50731C6.63139 6.92733 5.55952 6.52118 4.41111 6.26926C4.63396 6.54645 4.86657 6.8524 5.11831 7.11979C5.83489 7.903 6.58037 8.67641 7.24893 9.50798C7.52993 9.86166 7.69576 10.3506 7.82294 10.8206C7.88147 10.9932 7.70926 11.3402 7.54569 11.4277C7.38211 11.5153 7.00581 11.4505 6.92815 11.3165C5.34791 9.12647 3.18165 7.48798 1.18835 5.69462C0.491649 5.06502 0.441377 4.53688 1.10431 3.9272C2.75696 2.43668 4.68124 1.36715 6.80961 0.709458C6.86739 0.689862 6.99307 0.775516 7.22493 0.889301C7.1649 2.80179 5.14045 2.91112 3.95002 4.24488C4.36496 4.32864 4.70262 4.37448 4.99225 4.46867C10.699 6.57403 14.6969 10.5738 17.4559 15.8597C17.8833 16.6448 18.1376 17.5848 18.2858 18.4966C18.8099 21.8465 18.437 25.1159 17.0027 28.2C16.5341 29.1927 15.7661 30.0625 15.0559 30.9127C14.7873 31.2604 14.2962 31.4269 13.921 31.6504C13.7856 31.536 13.6501 31.4215 13.5147 31.3071Z" fill="white"/>
<path d="M13.5147 31.3071C13.7349 30.9117 13.8779 30.4784 14.1367 30.102C16.4767 26.839 16.9348 23.156 16.5825 19.3629C16.4617 18.0569 15.9646 16.6862 15.2852 15.5376C13.392 12.235 10.8262 9.5134 7.56895 7.50731C6.63139 6.92733 5.55952 6.52118 4.41111 6.26926C4.63396 6.54645 4.86657 6.8524 5.11831 7.11979C5.83489 7.903 6.58037 8.67641 7.24893 9.50798C7.52993 9.86166 7.69576 10.3506 7.82294 10.8206C7.88147 10.9932 7.70926 11.3402 7.54569 11.4277C7.38211 11.5153 7.00581 11.4505 6.92815 11.3165C5.34791 9.12647 3.18165 7.48798 1.18835 5.69462C0.491649 5.06502 0.441377 4.53688 1.10431 3.9272C2.75696 2.43668 4.68124 1.36715 6.80961 0.709458C6.86739 0.689862 6.99307 0.775516 7.22493 0.889301C7.1649 2.80179 5.14045 2.91112 3.95002 4.24488C4.36496 4.32864 4.70262 4.37448 4.99225 4.46867C10.699 6.57403 14.6969 10.5738 17.4559 15.8597C17.8833 16.6448 18.1376 17.5848 18.2858 18.4966C18.8099 21.8465 18.437 25.1159 17.0027 28.2C16.5341 29.1927 15.7661 30.0625 15.0559 30.9127C14.7873 31.2604 14.2962 31.4269 13.921 31.6504C13.7856 31.536 13.6501 31.4215 13.5147 31.3071Z" fill="#407BFF"/>
</svg>
