<svg width="13" height="13" viewBox="0 0 13 13" fill="none" xmlns="http://www.w3.org/2000/svg">
<path d="M6.74294 12.2778L12.0586 6.96216C12.3156 6.70784 12.3156 6.29224 12.0586 6.03519L6.74294 0.722322C6.48865 0.465281 6.07302 0.465281 5.81601 0.722322L5.20897 1.32936C4.94648 1.58912 4.95193 2.01295 5.21992 2.26724L8.51483 5.40629H0.656248C0.292583 5.40629 0 5.69887 0 6.06254V6.93754C0 7.3012 0.292583 7.59378 0.656248 7.59378H8.51483L5.21992 10.7328C4.95468 10.9871 4.94921 11.411 5.20897 11.6707L5.81601 12.2778C6.0703 12.5348 6.48593 12.5348 6.74294 12.2778Z" fill="white"/>
</svg>
