<svg width="72" height="67" viewBox="0 0 72 67" fill="none" xmlns="http://www.w3.org/2000/svg">
<path d="M39.9172 0C29.0717 0 19.4727 5.38255 13.6625 13.5964C14.865 14.3763 16.0371 15.4458 17.1707 16.8206C21.5053 10.3773 28.5139 5.85658 36.623 4.88477L39.9167 10.4259L43.2105 4.88465C55.6754 6.3781 65.5834 16.2276 67.0864 28.6195L61.5117 31.8945L67.0865 35.1695C66.0818 43.4544 61.3091 50.5871 54.5381 54.862C54.9694 55.8395 55.2124 56.8389 55.2553 57.8693C55.2869 58.6223 55.2088 59.3337 55.0518 60.0092C65.1305 54.6253 72 44.0442 72 31.895C72 14.3076 57.6081 0 39.9172 0ZM48.1044 52.528C40.7085 46.6189 38.6404 49.5236 35.2846 52.8593C32.9418 55.1892 27.0131 50.3238 21.8939 45.2344C16.7744 40.1442 11.8813 34.2512 14.2239 31.9217C17.5799 28.5859 20.5008 26.5287 14.5553 19.1781C8.61178 11.8249 4.64966 17.4702 1.39896 20.7021C-2.35398 24.4318 1.20119 38.3308 15.0188 52.0697C28.8384 65.8067 42.8191 69.3387 46.5698 65.6104C49.8201 62.3784 55.5004 58.4399 48.1044 52.528ZM25.5795 36.8865C25.5795 30.3508 33.276 29.1865 33.276 26.6361C33.276 25.3986 32.2795 24.879 31.3579 24.879C29.6641 24.879 28.7186 26.7601 28.7186 26.7601L25.4808 24.6063C25.4808 24.6063 27.1247 20.7935 31.7568 20.7935C34.6705 20.7935 37.8333 22.4525 37.8333 26.2157C37.8333 31.737 30.6606 32.802 30.5359 35.0798H38.1077V38.7934H25.7792C25.6544 38.1003 25.5795 37.4817 25.5795 36.8865ZM39.9284 31.8859L46.803 21.0901H52.1325V30.9201H54.2491V34.5096H52.1325V38.7936H47.8233V34.5096H39.9285V31.8859H39.9284ZM47.8232 30.92V26.9585C47.8232 25.9926 47.9728 24.9772 47.9728 24.9772H47.923C47.923 24.9772 47.5499 26.067 47.0512 26.8098L44.3621 30.8706V30.9202L47.8232 30.92Z" fill="black"/>
<path d="M39.9172 0C29.0717 0 19.4727 5.38255 13.6625 13.5964C14.865 14.3763 16.0371 15.4458 17.1707 16.8206C21.5053 10.3773 28.5139 5.85658 36.623 4.88477L39.9167 10.4259L43.2105 4.88465C55.6754 6.3781 65.5834 16.2276 67.0864 28.6195L61.5117 31.8945L67.0865 35.1695C66.0818 43.4544 61.3091 50.5871 54.5381 54.862C54.9694 55.8395 55.2124 56.8389 55.2553 57.8693C55.2869 58.6223 55.2088 59.3337 55.0518 60.0092C65.1305 54.6253 72 44.0442 72 31.895C72 14.3076 57.6081 0 39.9172 0ZM48.1044 52.528C40.7085 46.6189 38.6404 49.5236 35.2846 52.8593C32.9418 55.1892 27.0131 50.3238 21.8939 45.2344C16.7744 40.1442 11.8813 34.2512 14.2239 31.9217C17.5799 28.5859 20.5008 26.5287 14.5553 19.1781C8.61178 11.8249 4.64966 17.4702 1.39896 20.7021C-2.35398 24.4318 1.20119 38.3308 15.0188 52.0697C28.8384 65.8067 42.8191 69.3387 46.5698 65.6104C49.8201 62.3784 55.5004 58.4399 48.1044 52.528ZM25.5795 36.8865C25.5795 30.3508 33.276 29.1865 33.276 26.6361C33.276 25.3986 32.2795 24.879 31.3579 24.879C29.6641 24.879 28.7186 26.7601 28.7186 26.7601L25.4808 24.6063C25.4808 24.6063 27.1247 20.7935 31.7568 20.7935C34.6705 20.7935 37.8333 22.4525 37.8333 26.2157C37.8333 31.737 30.6606 32.802 30.5359 35.0798H38.1077V38.7934H25.7792C25.6544 38.1003 25.5795 37.4817 25.5795 36.8865ZM39.9284 31.8859L46.803 21.0901H52.1325V30.9201H54.2491V34.5096H52.1325V38.7936H47.8233V34.5096H39.9285V31.8859H39.9284ZM47.8232 30.92V26.9585C47.8232 25.9926 47.9728 24.9772 47.9728 24.9772H47.923C47.923 24.9772 47.5499 26.067 47.0512 26.8098L44.3621 30.8706V30.9202L47.8232 30.92Z" fill="#151516"/>
<rect x="23" y="17" width="33" height="26" fill="white"/>
</svg>
