<svg width="15" height="17" viewBox="0 0 15 17" fill="none" xmlns="http://www.w3.org/2000/svg">
<path d="M13.3707 16.9678C13.0049 16.9678 12.7083 16.6712 12.7083 16.3054C12.7083 13.7121 10.5986 11.6023 8.0053 11.6023H7.01171C4.41845 11.6023 2.30868 13.7121 2.30868 16.3054C2.30868 16.6712 2.01213 16.9678 1.64628 16.9678C1.28044 16.9678 0.983887 16.6712 0.983887 16.3054C0.983887 12.9816 3.68796 10.2775 7.01171 10.2775H8.0053C11.3291 10.2775 14.0331 12.9816 14.0331 16.3054C14.0331 16.6712 13.7366 16.9678 13.3707 16.9678ZM11.9135 4.48156C11.9135 2.01615 9.90768 0.010376 7.44227 0.010376C4.97685 0.010376 2.97108 2.01615 2.97108 4.48156C2.97108 6.94697 4.97685 8.95275 7.44227 8.95275C9.90768 8.95275 11.9135 6.94697 11.9135 4.48156ZM10.5887 4.48156C10.5887 6.21648 9.17719 7.62795 7.44227 7.62795C5.70735 7.62795 4.29588 6.21648 4.29588 4.48156C4.29588 2.74664 5.70735 1.33517 7.44227 1.33517C9.17719 1.33517 10.5887 2.74664 10.5887 4.48156Z" fill="#100DB1"/>
<path d="M7.47554 16.9678C7.36068 16.9678 7.24585 16.9379 7.14311 16.8783L4.4604 15.3217C4.3061 15.2322 4.19445 15.0842 4.15067 14.9112C4.10691 14.7383 4.13477 14.555 4.2279 14.4029L5.2215 12.78C5.4125 12.468 5.8203 12.3699 6.13229 12.5609C6.44428 12.752 6.54235 13.1597 6.35132 13.4717L5.71187 14.5162L7.47951 15.5419L9.29279 14.5151L8.63798 13.48C8.44241 13.1709 8.53445 12.7617 8.84362 12.5661C9.15273 12.3705 9.56196 12.4626 9.75753 12.7717L10.7842 14.3946C10.8812 14.5478 10.9111 14.7341 10.867 14.9099C10.8229 15.0858 10.7086 15.2358 10.5509 15.3252L7.8019 16.8818C7.70065 16.9391 7.58805 16.9678 7.47554 16.9678Z" fill="#F80D38"/>
</svg>
