<svg width="119" height="104" viewBox="0 0 119 104" fill="none" xmlns="http://www.w3.org/2000/svg">
<path d="M28.2324 41.1193C25.0291 40.3088 17.7699 33.0396 17.7699 33.0396C17.7699 33.0396 20.7086 42.8695 19.9029 46.0855C19.0972 49.3015 11.8234 56.5513 11.8234 56.5513C11.8234 56.5513 21.6675 53.6074 24.8721 54.4201C28.0768 55.2328 35.3369 62.4984 35.3369 62.4984C35.3369 62.4984 32.3937 52.6559 33.2039 49.4526C34.0141 46.2492 41.2835 38.9867 41.2835 38.9867C41.2835 38.9867 31.4325 41.9194 28.2324 41.1193Z" fill="white"/>
<path d="M61.0085 19.2953C62.156 20.4067 63.5991 21.7716 65.164 23.169C67.0235 24.8295 69.0679 26.5488 70.997 27.9497C72.8947 29.3277 74.7887 30.4788 76.3289 30.8935L76.3315 30.8943C77.8696 31.3036 80.0861 31.257 82.4199 31.0168C84.7916 30.7726 87.4228 30.3115 89.8657 29.8099C91.9256 29.3869 93.8632 28.9307 95.416 28.5462C94.3036 29.6952 92.9366 31.1412 91.5367 32.7096C89.8762 34.5698 88.1565 36.6142 86.7557 38.5438C85.3774 40.4424 84.2264 42.3375 83.8119 43.8779C83.3974 45.4184 83.4421 47.635 83.6816 49.9684C83.9251 52.3401 84.3869 54.9708 84.8898 57.4124C85.313 59.4675 85.7692 61.4006 86.1545 62.9509C85.0067 61.84 83.5638 60.4756 81.9985 59.0786C80.1388 57.4187 78.0947 55.7 76.1652 54.2992C74.2667 52.9209 72.3716 51.7689 70.831 51.3533C69.2899 50.9376 67.0723 50.982 64.7382 51.221C62.366 51.4639 59.7345 51.9251 57.2924 52.4279C55.2391 52.8506 53.3076 53.3064 51.7578 53.6915C52.8689 52.5457 54.2333 51.1063 55.6293 49.5439C57.2904 47.6849 59.0109 45.641 60.4117 43.71C61.7898 41.8101 62.9401 39.9119 63.3526 38.3652C63.7645 36.8206 63.7188 34.6027 63.479 32.2679C63.2352 29.8953 62.7738 27.2652 62.2713 24.8247C61.8489 22.7729 61.393 20.8434 61.0085 19.2953Z" stroke="white" stroke-width="2"/>
</svg>
