<svg width="24" height="24" viewBox="0 0 24 24" fill="none" xmlns="http://www.w3.org/2000/svg">
<path d="M6.16667 11.1667H12.8333V12.8333H6.16667V15.3333L2 12L6.16667 8.66666V11.1667ZM5.33333 17H7.59C8.55224 17.8486 9.73891 18.4015 11.0076 18.5924C12.2763 18.7833 13.5731 18.6041 14.7425 18.0762C15.9119 17.5484 16.9041 16.6943 17.6001 15.6165C18.296 14.5387 18.6663 13.283 18.6663 12C18.6663 10.717 18.296 9.46128 17.6001 8.38348C16.9041 7.30568 15.9119 6.45161 14.7425 5.92374C13.5731 5.39587 12.2763 5.21664 11.0076 5.40754C9.73891 5.59844 8.55224 6.15138 7.59 6.99999H5.33333C6.10888 5.9643 7.11528 5.12375 8.27256 4.54511C9.42984 3.96647 10.7061 3.66569 12 3.66666C16.6025 3.66666 20.3333 7.39749 20.3333 12C20.3333 16.6025 16.6025 20.3333 12 20.3333C10.7061 20.3343 9.42984 20.0335 8.27256 19.4549C7.11528 18.8762 6.10888 18.0357 5.33333 17Z" fill="#D61F1F"/>
</svg>
