<svg width="321" height="58" viewBox="0 0 321 58" fill="none" xmlns="http://www.w3.org/2000/svg">
<path d="M20.4727 25H16.6406V12.5312H16.4766C15.4219 13.2227 14.0156 14.125 12.8672 14.9219V11.5117C14.0977 10.6445 15.4336 9.78906 16.6875 9.00391H20.4727V25ZM26.6719 14.0078H23.0508V13.7852C23.0508 10.9492 25.418 8.72266 28.9219 8.72266C32.3086 8.72266 34.5586 10.5859 34.5586 13.2578C34.5586 15.0742 33.7031 16.3047 31.6992 18.3789L28.5234 21.8008V21.9297H34.8398V25H23.3086V22.6094L29.0039 16.6914C30.1289 15.543 30.75 14.6875 30.75 13.6445C30.75 12.4961 29.9062 11.7344 28.7344 11.7344C27.5039 11.7344 26.6719 12.6484 26.6719 13.7617V14.0078ZM36.5039 17.5V16.4805C36.5039 11.8633 38.8242 8.72266 42.8672 8.72266C46.9453 8.72266 49.1484 11.8281 49.1484 16.4805V17.5C49.1484 21.8242 47.0508 25.293 42.7852 25.293C38.7188 25.293 36.5039 22.1172 36.5039 17.5ZM40.3828 16.4922V17.4883C40.3828 20.6758 41.3672 22.1992 42.832 22.1992C44.2852 22.1992 45.2812 20.6523 45.2812 17.4883V16.4922C45.2812 13.3281 44.2852 11.8164 42.832 11.8164C41.3672 11.8164 40.3828 13.3047 40.3828 16.4922ZM50.7305 17.5V16.4805C50.7305 11.8633 53.0508 8.72266 57.0938 8.72266C61.1719 8.72266 63.375 11.8281 63.375 16.4805V17.5C63.375 21.8242 61.2773 25.293 57.0117 25.293C52.9453 25.293 50.7305 22.1172 50.7305 17.5ZM54.6094 16.4922V17.4883C54.6094 20.6758 55.5938 22.1992 57.0586 22.1992C58.5117 22.1992 59.5078 20.6523 59.5078 17.4883V16.4922C59.5078 13.3281 58.5117 11.8164 57.0586 11.8164C55.5938 11.8164 54.6094 13.3047 54.6094 16.4922ZM64.957 17.5V16.4805C64.957 11.8633 67.2773 8.72266 71.3203 8.72266C75.3984 8.72266 77.6016 11.8281 77.6016 16.4805V17.5C77.6016 21.8242 75.5039 25.293 71.2383 25.293C67.1719 25.293 64.957 22.1172 64.957 17.5ZM68.8359 16.4922V17.4883C68.8359 20.6758 69.8203 22.1992 71.2852 22.1992C72.7383 22.1992 73.7344 20.6523 73.7344 17.4883V16.4922C73.7344 13.3281 72.7383 11.8164 71.2852 11.8164C69.8203 11.8164 68.8359 13.3047 68.8359 16.4922ZM87.293 19.9609V24.7539H84.0117V19.9609H79.5V16.7734H84.0117V12.0977H87.293V16.7734H91.8047V19.9609H87.293Z" fill="white"/>
<path d="M4.43652 49H3.26758V40.0312H0.123047V39.0059H7.56738V40.0312H4.43652V49ZM11.792 41.3711C12.43 41.3711 12.9769 41.5124 13.4326 41.7949C13.8883 42.0775 14.237 42.474 14.4785 42.9844C14.7201 43.4902 14.8408 44.0827 14.8408 44.7617V45.4658H9.66602C9.67969 46.3454 9.89844 47.0153 10.3223 47.4756C10.7461 47.9359 11.3431 48.166 12.1133 48.166C12.5872 48.166 13.0065 48.1227 13.3711 48.0361C13.7357 47.9495 14.1139 47.8219 14.5059 47.6533V48.6514C14.1276 48.82 13.7516 48.943 13.3779 49.0205C13.0088 49.098 12.5713 49.1367 12.0654 49.1367C11.3454 49.1367 10.7165 48.9909 10.1787 48.6992C9.64551 48.403 9.23079 47.9701 8.93457 47.4004C8.63835 46.8307 8.49023 46.1335 8.49023 45.3086C8.49023 44.502 8.62467 43.8047 8.89355 43.2168C9.16699 42.6243 9.5498 42.1686 10.042 41.8496C10.5387 41.5306 11.1221 41.3711 11.792 41.3711ZM11.7783 42.3008C11.1722 42.3008 10.6891 42.499 10.3291 42.8955C9.96908 43.292 9.75488 43.8457 9.68652 44.5566H13.6514C13.6468 44.11 13.5762 43.7181 13.4395 43.3809C13.3073 43.0391 13.1045 42.7747 12.8311 42.5879C12.5576 42.3965 12.2067 42.3008 11.7783 42.3008ZM21.6152 46.9492C21.6152 47.4277 21.4945 47.8311 21.2529 48.1592C21.016 48.4827 20.6742 48.7266 20.2275 48.8906C19.7855 49.0547 19.2568 49.1367 18.6416 49.1367C18.1175 49.1367 17.6641 49.0957 17.2812 49.0137C16.8984 48.9316 16.5635 48.8154 16.2764 48.665V47.6191C16.5817 47.7695 16.9463 47.9062 17.3701 48.0293C17.7939 48.1523 18.2269 48.2139 18.6689 48.2139C19.3161 48.2139 19.7855 48.109 20.0771 47.8994C20.3688 47.6898 20.5146 47.4049 20.5146 47.0449C20.5146 46.8398 20.4554 46.6598 20.3369 46.5049C20.223 46.3454 20.0293 46.1927 19.7559 46.0469C19.4824 45.8965 19.1042 45.7324 18.6211 45.5547C18.1426 45.3724 17.7279 45.1924 17.377 45.0146C17.0306 44.8324 16.7617 44.6113 16.5703 44.3516C16.3835 44.0918 16.29 43.7546 16.29 43.3398C16.29 42.7064 16.5452 42.221 17.0557 41.8838C17.5706 41.542 18.2451 41.3711 19.0791 41.3711C19.5303 41.3711 19.9518 41.4167 20.3438 41.5078C20.7402 41.5944 21.1094 41.7129 21.4512 41.8633L21.0684 42.7725C20.7585 42.6403 20.4281 42.5286 20.0771 42.4375C19.7262 42.3464 19.3685 42.3008 19.0039 42.3008C18.4798 42.3008 18.0765 42.3874 17.7939 42.5605C17.516 42.7337 17.377 42.9707 17.377 43.2715C17.377 43.5039 17.4408 43.6953 17.5684 43.8457C17.7005 43.9961 17.9102 44.1374 18.1973 44.2695C18.4844 44.4017 18.8626 44.5566 19.332 44.7344C19.8014 44.9076 20.207 45.0876 20.5488 45.2744C20.8906 45.4567 21.1527 45.68 21.335 45.9443C21.5218 46.2041 21.6152 46.5391 21.6152 46.9492ZM25.8604 48.207C26.0472 48.207 26.2386 48.1911 26.4346 48.1592C26.6305 48.1273 26.79 48.0885 26.9131 48.043V48.9248C26.7809 48.984 26.5964 49.0342 26.3594 49.0752C26.127 49.1162 25.8991 49.1367 25.6758 49.1367C25.2793 49.1367 24.9193 49.0684 24.5957 48.9316C24.2721 48.7904 24.0124 48.5534 23.8164 48.2207C23.625 47.888 23.5293 47.4277 23.5293 46.8398V42.3965H22.4629V41.8428L23.5361 41.3984L23.9873 39.7715H24.6709V41.5078H26.8652V42.3965H24.6709V46.8057C24.6709 47.2751 24.778 47.626 24.9922 47.8584C25.2109 48.0908 25.5003 48.207 25.8604 48.207ZM38.4863 39.0059C39.776 39.0059 40.7171 39.2588 41.3096 39.7646C41.9066 40.266 42.2051 40.986 42.2051 41.9248C42.2051 42.3486 42.1344 42.752 41.9932 43.1348C41.8564 43.513 41.6331 43.848 41.3232 44.1396C41.0133 44.4268 40.6055 44.6546 40.0996 44.8232C39.5983 44.9873 38.9831 45.0693 38.2539 45.0693H37.0371V49H35.875V39.0059H38.4863ZM38.377 39.9971H37.0371V44.0713H38.124C38.762 44.0713 39.293 44.0029 39.7168 43.8662C40.1452 43.7295 40.4665 43.5085 40.6807 43.2031C40.8949 42.8932 41.002 42.4831 41.002 41.9727C41.002 41.3073 40.79 40.8128 40.3662 40.4893C39.9424 40.1611 39.2793 39.9971 38.377 39.9971ZM47.0107 41.3711C47.6488 41.3711 48.1956 41.5124 48.6514 41.7949C49.1071 42.0775 49.4557 42.474 49.6973 42.9844C49.9388 43.4902 50.0596 44.0827 50.0596 44.7617V45.4658H44.8848C44.8984 46.3454 45.1172 47.0153 45.541 47.4756C45.9648 47.9359 46.5618 48.166 47.332 48.166C47.806 48.166 48.2253 48.1227 48.5898 48.0361C48.9544 47.9495 49.3327 47.8219 49.7246 47.6533V48.6514C49.3464 48.82 48.9704 48.943 48.5967 49.0205C48.2275 49.098 47.79 49.1367 47.2842 49.1367C46.5641 49.1367 45.9352 48.9909 45.3975 48.6992C44.8643 48.403 44.4495 47.9701 44.1533 47.4004C43.8571 46.8307 43.709 46.1335 43.709 45.3086C43.709 44.502 43.8434 43.8047 44.1123 43.2168C44.3857 42.6243 44.7686 42.1686 45.2607 41.8496C45.7575 41.5306 46.3408 41.3711 47.0107 41.3711ZM46.9971 42.3008C46.391 42.3008 45.9079 42.499 45.5479 42.8955C45.1878 43.292 44.9736 43.8457 44.9053 44.5566H48.8701C48.8656 44.11 48.7949 43.7181 48.6582 43.3809C48.526 43.0391 48.3232 42.7747 48.0498 42.5879C47.7764 42.3965 47.4255 42.3008 46.9971 42.3008ZM55.3916 41.3711C55.542 41.3711 55.6992 41.3802 55.8633 41.3984C56.0273 41.4121 56.1732 41.4326 56.3008 41.46L56.1572 42.5127C56.0342 42.4808 55.8975 42.4557 55.7471 42.4375C55.5967 42.4193 55.4554 42.4102 55.3232 42.4102C55.0225 42.4102 54.7376 42.4717 54.4688 42.5947C54.2044 42.7132 53.972 42.8864 53.7715 43.1143C53.571 43.3376 53.4137 43.6087 53.2998 43.9277C53.1859 44.2422 53.1289 44.5931 53.1289 44.9805V49H51.9873V41.5078H52.9307L53.0537 42.8887H53.1016C53.2565 42.6107 53.4434 42.3577 53.6621 42.1299C53.8809 41.8975 54.1338 41.7129 54.4209 41.5762C54.7126 41.4395 55.0361 41.3711 55.3916 41.3711ZM61.0518 42.3965H59.1855V49H58.0508V42.3965H56.7246V41.8496L58.0508 41.4736V40.9746C58.0508 40.3457 58.1442 39.8353 58.3311 39.4434C58.5179 39.0469 58.7891 38.7552 59.1445 38.5684C59.5 38.3815 59.9329 38.2881 60.4434 38.2881C60.7305 38.2881 60.9925 38.3132 61.2295 38.3633C61.471 38.4134 61.6829 38.4704 61.8652 38.5342L61.5713 39.4297C61.4163 39.3796 61.2409 39.334 61.0449 39.293C60.8535 39.2474 60.6576 39.2246 60.457 39.2246C60.0241 39.2246 59.7028 39.3659 59.4932 39.6484C59.2881 39.9264 59.1855 40.3639 59.1855 40.9609V41.5078H61.0518V42.3965ZM68.8926 45.2402C68.8926 45.8555 68.8128 46.4046 68.6533 46.8877C68.4938 47.3708 68.2637 47.7786 67.9629 48.1113C67.6621 48.444 67.2975 48.6992 66.8691 48.877C66.4453 49.0501 65.9645 49.1367 65.4268 49.1367C64.9255 49.1367 64.4652 49.0501 64.0459 48.877C63.6312 48.6992 63.2712 48.444 62.9658 48.1113C62.665 47.7786 62.4303 47.3708 62.2617 46.8877C62.0977 46.4046 62.0156 45.8555 62.0156 45.2402C62.0156 44.4199 62.1546 43.7227 62.4326 43.1484C62.7106 42.5697 63.1071 42.1299 63.6221 41.8291C64.1416 41.5238 64.7591 41.3711 65.4746 41.3711C66.1582 41.3711 66.7552 41.5238 67.2656 41.8291C67.7806 42.1344 68.1794 42.5765 68.4619 43.1553C68.749 43.7295 68.8926 44.4245 68.8926 45.2402ZM63.1914 45.2402C63.1914 45.8418 63.2712 46.3636 63.4307 46.8057C63.5902 47.2477 63.8363 47.5895 64.1689 47.8311C64.5016 48.0726 64.93 48.1934 65.4541 48.1934C65.9736 48.1934 66.3997 48.0726 66.7324 47.8311C67.0697 47.5895 67.318 47.2477 67.4775 46.8057C67.637 46.3636 67.7168 45.8418 67.7168 45.2402C67.7168 44.6432 67.637 44.1283 67.4775 43.6953C67.318 43.2578 67.0719 42.9206 66.7393 42.6836C66.4066 42.4466 65.9759 42.3281 65.4473 42.3281C64.668 42.3281 64.096 42.5856 63.7314 43.1006C63.3714 43.6156 63.1914 44.3288 63.1914 45.2402ZM74.2588 41.3711C74.4092 41.3711 74.5664 41.3802 74.7305 41.3984C74.8945 41.4121 75.0404 41.4326 75.168 41.46L75.0244 42.5127C74.9014 42.4808 74.7646 42.4557 74.6143 42.4375C74.4639 42.4193 74.3226 42.4102 74.1904 42.4102C73.8896 42.4102 73.6048 42.4717 73.3359 42.5947C73.0716 42.7132 72.8392 42.8864 72.6387 43.1143C72.4382 43.3376 72.2809 43.6087 72.167 43.9277C72.0531 44.2422 71.9961 44.5931 71.9961 44.9805V49H70.8545V41.5078H71.7979L71.9209 42.8887H71.9688C72.1237 42.6107 72.3105 42.3577 72.5293 42.1299C72.748 41.8975 73.001 41.7129 73.2881 41.5762C73.5798 41.4395 73.9033 41.3711 74.2588 41.3711ZM84.7178 41.3711C85.5426 41.3711 86.1647 41.5876 86.584 42.0205C87.0033 42.4489 87.2129 43.1393 87.2129 44.0918V49H86.0918V44.1465C86.0918 43.5404 85.9596 43.0869 85.6953 42.7861C85.4355 42.4808 85.0482 42.3281 84.5332 42.3281C83.8086 42.3281 83.2822 42.5378 82.9541 42.957C82.626 43.3763 82.4619 43.9938 82.4619 44.8096V49H81.334V44.1465C81.334 43.7409 81.2747 43.4036 81.1562 43.1348C81.0423 42.8659 80.8691 42.6654 80.6367 42.5332C80.4089 42.3965 80.1195 42.3281 79.7686 42.3281C79.2718 42.3281 78.873 42.4307 78.5723 42.6357C78.2715 42.8408 78.0527 43.1462 77.916 43.5518C77.7839 43.9528 77.7178 44.4473 77.7178 45.0352V49H76.583V41.5078H77.499L77.6699 42.5674H77.7314C77.8818 42.3076 78.071 42.0889 78.2988 41.9111C78.5267 41.7334 78.7819 41.599 79.0645 41.5078C79.347 41.4167 79.6478 41.3711 79.9668 41.3711C80.5365 41.3711 81.0127 41.4782 81.3955 41.6924C81.7829 41.902 82.0632 42.2233 82.2363 42.6562H82.2979C82.5439 42.2233 82.8812 41.902 83.3096 41.6924C83.738 41.4782 84.2074 41.3711 84.7178 41.3711ZM92.4287 41.3711C93.0667 41.3711 93.6136 41.5124 94.0693 41.7949C94.5251 42.0775 94.8737 42.474 95.1152 42.9844C95.3568 43.4902 95.4775 44.0827 95.4775 44.7617V45.4658H90.3027C90.3164 46.3454 90.5352 47.0153 90.959 47.4756C91.3828 47.9359 91.9798 48.166 92.75 48.166C93.224 48.166 93.6432 48.1227 94.0078 48.0361C94.3724 47.9495 94.7507 47.8219 95.1426 47.6533V48.6514C94.7643 48.82 94.3883 48.943 94.0146 49.0205C93.6455 49.098 93.208 49.1367 92.7021 49.1367C91.9821 49.1367 91.3532 48.9909 90.8154 48.6992C90.2822 48.403 89.8675 47.9701 89.5713 47.4004C89.2751 46.8307 89.127 46.1335 89.127 45.3086C89.127 44.502 89.2614 43.8047 89.5303 43.2168C89.8037 42.6243 90.1865 42.1686 90.6787 41.8496C91.1755 41.5306 91.7588 41.3711 92.4287 41.3711ZM92.415 42.3008C91.8089 42.3008 91.3258 42.499 90.9658 42.8955C90.6058 43.292 90.3916 43.8457 90.3232 44.5566H94.2881C94.2835 44.11 94.2129 43.7181 94.0762 43.3809C93.944 43.0391 93.7412 42.7747 93.4678 42.5879C93.1943 42.3965 92.8434 42.3008 92.415 42.3008ZM100.071 49.1367C99.1234 49.1367 98.3714 48.8132 97.8154 48.166C97.264 47.5189 96.9883 46.5573 96.9883 45.2812C96.9883 43.9915 97.2708 43.0186 97.8359 42.3623C98.401 41.7015 99.153 41.3711 100.092 41.3711C100.488 41.3711 100.835 41.4235 101.131 41.5283C101.427 41.6331 101.682 41.7744 101.896 41.9521C102.111 42.1253 102.291 42.3236 102.437 42.5469H102.519C102.5 42.4056 102.482 42.2119 102.464 41.9658C102.446 41.7197 102.437 41.5192 102.437 41.3643V38.3633H103.571V49H102.655L102.484 47.9336H102.437C102.295 48.1569 102.115 48.3597 101.896 48.542C101.682 48.7243 101.425 48.8701 101.124 48.9795C100.828 49.0843 100.477 49.1367 100.071 49.1367ZM100.249 48.1934C101.051 48.1934 101.618 47.9655 101.951 47.5098C102.284 47.054 102.45 46.3773 102.45 45.4795V45.2744C102.45 44.3219 102.291 43.5905 101.972 43.0801C101.657 42.5697 101.083 42.3145 100.249 42.3145C99.5518 42.3145 99.0299 42.5833 98.6836 43.1211C98.3372 43.6543 98.1641 44.3835 98.1641 45.3086C98.1641 46.2292 98.335 46.9401 98.6768 47.4414C99.0231 47.9427 99.5472 48.1934 100.249 48.1934Z" fill="white" fill-opacity="0.72"/>
<path d="M117 1L117 57" stroke="white" stroke-opacity="0.24" stroke-linecap="round"/>
<path d="M170.973 23.5H167.141V11.0312H166.977C165.922 11.7227 164.516 12.625 163.367 13.4219V10.0117C164.598 9.14453 165.934 8.28906 167.188 7.50391H170.973V23.5ZM177.172 12.5078H173.551V12.2852C173.551 9.44922 175.918 7.22266 179.422 7.22266C182.809 7.22266 185.059 9.08594 185.059 11.7578C185.059 13.5742 184.203 14.8047 182.199 16.8789L179.023 20.3008V20.4297H185.34V23.5H173.809V21.1094L179.504 15.1914C180.629 14.043 181.25 13.1875 181.25 12.1445C181.25 10.9961 180.406 10.2344 179.234 10.2344C178.004 10.2344 177.172 11.1484 177.172 12.2617V12.5078ZM194.832 18.4609V23.2539H191.551V18.4609H187.039V15.2734H191.551V10.5977H194.832V15.2734H199.344V18.4609H194.832Z" fill="white"/>
<path d="M132.917 42.5166L135.576 37.5059H136.827L133.498 43.624V47.5H132.336V43.6787L129 37.5059H130.271L132.917 42.5166ZM140.915 39.8711C141.553 39.8711 142.1 40.0124 142.556 40.2949C143.011 40.5775 143.36 40.974 143.602 41.4844C143.843 41.9902 143.964 42.5827 143.964 43.2617V43.9658H138.789C138.803 44.8454 139.021 45.5153 139.445 45.9756C139.869 46.4359 140.466 46.666 141.236 46.666C141.71 46.666 142.13 46.6227 142.494 46.5361C142.859 46.4495 143.237 46.3219 143.629 46.1533V47.1514C143.251 47.32 142.875 47.443 142.501 47.5205C142.132 47.598 141.694 47.6367 141.188 47.6367C140.468 47.6367 139.84 47.4909 139.302 47.1992C138.769 46.903 138.354 46.4701 138.058 45.9004C137.761 45.3307 137.613 44.6335 137.613 43.8086C137.613 43.002 137.748 42.3047 138.017 41.7168C138.29 41.1243 138.673 40.6686 139.165 40.3496C139.662 40.0306 140.245 39.8711 140.915 39.8711ZM140.901 40.8008C140.295 40.8008 139.812 40.999 139.452 41.3955C139.092 41.792 138.878 42.3457 138.81 43.0566H142.774C142.77 42.61 142.699 42.2181 142.562 41.8809C142.43 41.5391 142.228 41.2747 141.954 41.0879C141.681 40.8965 141.33 40.8008 140.901 40.8008ZM148.694 39.8848C149.588 39.8848 150.251 40.0853 150.684 40.4863C151.117 40.8874 151.333 41.5277 151.333 42.4072V47.5H150.506L150.287 46.3926H150.232C150.023 46.666 149.804 46.8962 149.576 47.083C149.348 47.2653 149.084 47.4043 148.783 47.5C148.487 47.5911 148.122 47.6367 147.689 47.6367C147.234 47.6367 146.828 47.557 146.473 47.3975C146.122 47.238 145.844 46.9964 145.639 46.6729C145.438 46.3493 145.338 45.9391 145.338 45.4424C145.338 44.695 145.634 44.1208 146.227 43.7197C146.819 43.3187 147.721 43.0999 148.934 43.0635L150.226 43.0088V42.5508C150.226 41.9036 150.087 41.4502 149.809 41.1904C149.531 40.9307 149.139 40.8008 148.633 40.8008C148.241 40.8008 147.867 40.8577 147.512 40.9717C147.156 41.0856 146.819 41.2201 146.5 41.375L146.151 40.5137C146.489 40.3405 146.876 40.1924 147.313 40.0693C147.751 39.9463 148.211 39.8848 148.694 39.8848ZM150.212 43.8086L149.07 43.8564C148.136 43.8929 147.478 44.0456 147.095 44.3145C146.712 44.5833 146.521 44.9639 146.521 45.4561C146.521 45.8844 146.65 46.2012 146.91 46.4062C147.17 46.6113 147.514 46.7139 147.942 46.7139C148.608 46.7139 149.152 46.5293 149.576 46.1602C150 45.791 150.212 45.2373 150.212 44.499V43.8086ZM157.075 39.8711C157.226 39.8711 157.383 39.8802 157.547 39.8984C157.711 39.9121 157.857 39.9326 157.984 39.96L157.841 41.0127C157.718 40.9808 157.581 40.9557 157.431 40.9375C157.28 40.9193 157.139 40.9102 157.007 40.9102C156.706 40.9102 156.421 40.9717 156.152 41.0947C155.888 41.2132 155.656 41.3864 155.455 41.6143C155.255 41.8376 155.097 42.1087 154.983 42.4277C154.869 42.7422 154.812 43.0931 154.812 43.4805V47.5H153.671V40.0078H154.614L154.737 41.3887H154.785C154.94 41.1107 155.127 40.8577 155.346 40.6299C155.564 40.3975 155.817 40.2129 156.104 40.0762C156.396 39.9395 156.72 39.8711 157.075 39.8711ZM168.771 47.5H163.207V37.5059H168.771V38.5312H164.369V41.7646H168.519V42.7764H164.369V46.4746H168.771V47.5ZM172.6 43.665L170.009 40.0078H171.308L173.283 42.8926L175.252 40.0078H176.537L173.946 43.665L176.681 47.5H175.382L173.283 44.4443L171.171 47.5H169.886L172.6 43.665ZM181.664 39.8711C182.598 39.8711 183.343 40.1924 183.899 40.835C184.455 41.4775 184.733 42.4437 184.733 43.7334C184.733 44.5856 184.606 45.3011 184.351 45.8799C184.095 46.4587 183.735 46.8962 183.271 47.1924C182.81 47.4886 182.266 47.6367 181.637 47.6367C181.24 47.6367 180.892 47.5843 180.591 47.4795C180.29 47.3747 180.033 47.2334 179.818 47.0557C179.604 46.8779 179.426 46.6842 179.285 46.4746H179.203C179.217 46.6523 179.233 46.8665 179.251 47.1172C179.274 47.3678 179.285 47.5866 179.285 47.7734V50.8496H178.144V40.0078H179.08L179.23 41.1152H179.285C179.431 40.8874 179.609 40.68 179.818 40.4932C180.028 40.3018 180.283 40.1514 180.584 40.042C180.889 39.9281 181.249 39.8711 181.664 39.8711ZM181.466 40.8281C180.946 40.8281 180.527 40.9284 180.208 41.1289C179.894 41.3294 179.663 41.6302 179.518 42.0312C179.372 42.4277 179.294 42.9268 179.285 43.5283V43.7471C179.285 44.3805 179.354 44.916 179.49 45.3535C179.632 45.791 179.862 46.1237 180.181 46.3516C180.504 46.5794 180.937 46.6934 181.479 46.6934C181.944 46.6934 182.332 46.568 182.642 46.3174C182.951 46.0667 183.182 45.7181 183.332 45.2715C183.487 44.8203 183.564 44.3031 183.564 43.7197C183.564 42.8356 183.391 42.1338 183.045 41.6143C182.703 41.0902 182.177 40.8281 181.466 40.8281ZM189.601 39.8711C190.239 39.8711 190.785 40.0124 191.241 40.2949C191.697 40.5775 192.046 40.974 192.287 41.4844C192.529 41.9902 192.649 42.5827 192.649 43.2617V43.9658H187.475C187.488 44.8454 187.707 45.5153 188.131 45.9756C188.555 46.4359 189.152 46.666 189.922 46.666C190.396 46.666 190.815 46.6227 191.18 46.5361C191.544 46.4495 191.923 46.3219 192.314 46.1533V47.1514C191.936 47.32 191.56 47.443 191.187 47.5205C190.817 47.598 190.38 47.6367 189.874 47.6367C189.154 47.6367 188.525 47.4909 187.987 47.1992C187.454 46.903 187.039 46.4701 186.743 45.9004C186.447 45.3307 186.299 44.6335 186.299 43.8086C186.299 43.002 186.433 42.3047 186.702 41.7168C186.976 41.1243 187.358 40.6686 187.851 40.3496C188.347 40.0306 188.931 39.8711 189.601 39.8711ZM189.587 40.8008C188.981 40.8008 188.498 40.999 188.138 41.3955C187.778 41.792 187.563 42.3457 187.495 43.0566H191.46C191.455 42.61 191.385 42.2181 191.248 41.8809C191.116 41.5391 190.913 41.2747 190.64 41.0879C190.366 40.8965 190.015 40.8008 189.587 40.8008ZM197.981 39.8711C198.132 39.8711 198.289 39.8802 198.453 39.8984C198.617 39.9121 198.763 39.9326 198.891 39.96L198.747 41.0127C198.624 40.9808 198.487 40.9557 198.337 40.9375C198.187 40.9193 198.045 40.9102 197.913 40.9102C197.612 40.9102 197.327 40.9717 197.059 41.0947C196.794 41.2132 196.562 41.3864 196.361 41.6143C196.161 41.8376 196.004 42.1087 195.89 42.4277C195.776 42.7422 195.719 43.0931 195.719 43.4805V47.5H194.577V40.0078H195.521L195.644 41.3887H195.691C195.846 41.1107 196.033 40.8577 196.252 40.6299C196.471 40.3975 196.724 40.2129 197.011 40.0762C197.302 39.9395 197.626 39.8711 197.981 39.8711ZM201.44 40.0078V47.5H200.306V40.0078H201.44ZM200.887 37.2051C201.074 37.2051 201.233 37.2666 201.365 37.3896C201.502 37.5081 201.57 37.695 201.57 37.9502C201.57 38.2008 201.502 38.3877 201.365 38.5107C201.233 38.6338 201.074 38.6953 200.887 38.6953C200.691 38.6953 200.527 38.6338 200.395 38.5107C200.267 38.3877 200.203 38.2008 200.203 37.9502C200.203 37.695 200.267 37.5081 200.395 37.3896C200.527 37.2666 200.691 37.2051 200.887 37.2051ZM206.731 39.8711C207.369 39.8711 207.916 40.0124 208.372 40.2949C208.828 40.5775 209.176 40.974 209.418 41.4844C209.66 41.9902 209.78 42.5827 209.78 43.2617V43.9658H204.605C204.619 44.8454 204.838 45.5153 205.262 45.9756C205.686 46.4359 206.283 46.666 207.053 46.666C207.527 46.666 207.946 46.6227 208.311 46.5361C208.675 46.4495 209.053 46.3219 209.445 46.1533V47.1514C209.067 47.32 208.691 47.443 208.317 47.5205C207.948 47.598 207.511 47.6367 207.005 47.6367C206.285 47.6367 205.656 47.4909 205.118 47.1992C204.585 46.903 204.17 46.4701 203.874 45.9004C203.578 45.3307 203.43 44.6335 203.43 43.8086C203.43 43.002 203.564 42.3047 203.833 41.7168C204.106 41.1243 204.489 40.6686 204.981 40.3496C205.478 40.0306 206.062 39.8711 206.731 39.8711ZM206.718 40.8008C206.112 40.8008 205.629 40.999 205.269 41.3955C204.909 41.792 204.694 42.3457 204.626 43.0566H208.591C208.586 42.61 208.516 42.2181 208.379 41.8809C208.247 41.5391 208.044 41.2747 207.771 41.0879C207.497 40.8965 207.146 40.8008 206.718 40.8008ZM215.256 39.8711C216.145 39.8711 216.817 40.0898 217.272 40.5273C217.728 40.9603 217.956 41.6576 217.956 42.6191V47.5H216.835V42.6943C216.835 42.07 216.691 41.6029 216.404 41.293C216.122 40.9831 215.687 40.8281 215.099 40.8281C214.269 40.8281 213.686 41.0628 213.349 41.5322C213.011 42.0016 212.843 42.6829 212.843 43.5762V47.5H211.708V40.0078H212.624L212.795 41.0879H212.856C213.016 40.8236 213.219 40.6025 213.465 40.4248C213.711 40.2425 213.987 40.1058 214.292 40.0146C214.597 39.9189 214.919 39.8711 215.256 39.8711ZM223.295 47.6367C222.62 47.6367 222.026 47.4977 221.511 47.2197C220.996 46.9417 220.595 46.5179 220.308 45.9482C220.021 45.3786 219.877 44.6608 219.877 43.7949C219.877 42.888 220.027 42.1475 220.328 41.5732C220.633 40.9945 221.053 40.5661 221.586 40.2881C222.119 40.0101 222.725 39.8711 223.404 39.8711C223.778 39.8711 224.138 39.9098 224.484 39.9873C224.835 40.0602 225.122 40.1536 225.346 40.2676L225.004 41.2178C224.776 41.1266 224.512 41.0446 224.211 40.9717C223.915 40.8988 223.637 40.8623 223.377 40.8623C222.857 40.8623 222.424 40.974 222.078 41.1973C221.736 41.4206 221.479 41.7487 221.306 42.1816C221.137 42.6146 221.053 43.1478 221.053 43.7812C221.053 44.3874 221.135 44.9046 221.299 45.333C221.467 45.7614 221.716 46.0895 222.044 46.3174C222.377 46.5407 222.791 46.6523 223.288 46.6523C223.685 46.6523 224.042 46.6113 224.361 46.5293C224.68 46.4427 224.97 46.3424 225.229 46.2285V47.2402C224.979 47.3678 224.699 47.4658 224.389 47.5342C224.083 47.6025 223.719 47.6367 223.295 47.6367ZM229.892 39.8711C230.53 39.8711 231.076 40.0124 231.532 40.2949C231.988 40.5775 232.337 40.974 232.578 41.4844C232.82 41.9902 232.94 42.5827 232.94 43.2617V43.9658H227.766C227.779 44.8454 227.998 45.5153 228.422 45.9756C228.846 46.4359 229.443 46.666 230.213 46.666C230.687 46.666 231.106 46.6227 231.471 46.5361C231.835 46.4495 232.214 46.3219 232.605 46.1533V47.1514C232.227 47.32 231.851 47.443 231.478 47.5205C231.108 47.598 230.671 47.6367 230.165 47.6367C229.445 47.6367 228.816 47.4909 228.278 47.1992C227.745 46.903 227.33 46.4701 227.034 45.9004C226.738 45.3307 226.59 44.6335 226.59 43.8086C226.59 43.002 226.724 42.3047 226.993 41.7168C227.267 41.1243 227.649 40.6686 228.142 40.3496C228.638 40.0306 229.222 39.8711 229.892 39.8711ZM229.878 40.8008C229.272 40.8008 228.789 40.999 228.429 41.3955C228.069 41.792 227.854 42.3457 227.786 43.0566H231.751C231.746 42.61 231.676 42.2181 231.539 41.8809C231.407 41.5391 231.204 41.2747 230.931 41.0879C230.657 40.8965 230.306 40.8008 229.878 40.8008Z" fill="white" fill-opacity="0.72"/>
<path d="M246 1L246 57" stroke="white" stroke-opacity="0.24" stroke-linecap="round"/>
<path d="M273.867 13.1406H270.316C270.199 12.3789 269.414 11.6758 268.266 11.6758C266.227 11.6758 265.348 14.043 265.43 16.7266H265.605C266.016 15.7422 267.07 14.4531 269.238 14.4531C271.852 14.4531 274.23 16.293 274.23 19.6445C274.23 23.2656 271.559 25.293 268.242 25.293C266.25 25.293 264.633 24.5664 263.531 23.1836C262.43 21.8125 261.82 19.7969 261.82 17.2188C261.82 11.8047 264.293 8.73438 268.348 8.73438C271.957 8.73438 273.773 11.1484 273.867 13.1406ZM265.852 19.7852C265.852 21.3555 266.895 22.3281 268.23 22.3281C269.543 22.3281 270.574 21.3906 270.574 19.7852C270.574 18.1914 269.531 17.2305 268.23 17.2305C266.859 17.2305 265.852 18.25 265.852 19.7852ZM275.66 17.5V16.4805C275.66 11.8633 277.98 8.72266 282.023 8.72266C286.102 8.72266 288.305 11.8281 288.305 16.4805V17.5C288.305 21.8242 286.207 25.293 281.941 25.293C277.875 25.293 275.66 22.1172 275.66 17.5ZM279.539 16.4922V17.4883C279.539 20.6758 280.523 22.1992 281.988 22.1992C283.441 22.1992 284.438 20.6523 284.438 17.4883V16.4922C284.438 13.3281 283.441 11.8164 281.988 11.8164C280.523 11.8164 279.539 13.3047 279.539 16.4922ZM289.887 17.5V16.4805C289.887 11.8633 292.207 8.72266 296.25 8.72266C300.328 8.72266 302.531 11.8281 302.531 16.4805V17.5C302.531 21.8242 300.434 25.293 296.168 25.293C292.102 25.293 289.887 22.1172 289.887 17.5ZM293.766 16.4922V17.4883C293.766 20.6758 294.75 22.1992 296.215 22.1992C297.668 22.1992 298.664 20.6523 298.664 17.4883V16.4922C298.664 13.3281 297.668 11.8164 296.215 11.8164C294.75 11.8164 293.766 13.3047 293.766 16.4922ZM312.223 19.9609V24.7539H308.941V19.9609H304.43V16.7734H308.941V12.0977H312.223V16.7734H316.734V19.9609H312.223Z" fill="white"/>
<path d="M259.367 49V39.0059H260.529V47.9609H264.966V49H259.367ZM272.971 45.2402C272.971 45.8555 272.891 46.4046 272.731 46.8877C272.572 47.3708 272.342 47.7786 272.041 48.1113C271.74 48.444 271.376 48.6992 270.947 48.877C270.523 49.0501 270.043 49.1367 269.505 49.1367C269.004 49.1367 268.543 49.0501 268.124 48.877C267.709 48.6992 267.349 48.444 267.044 48.1113C266.743 47.7786 266.508 47.3708 266.34 46.8877C266.176 46.4046 266.094 45.8555 266.094 45.2402C266.094 44.4199 266.233 43.7227 266.511 43.1484C266.789 42.5697 267.185 42.1299 267.7 41.8291C268.22 41.5238 268.837 41.3711 269.553 41.3711C270.236 41.3711 270.833 41.5238 271.344 41.8291C271.859 42.1344 272.257 42.5765 272.54 43.1553C272.827 43.7295 272.971 44.4245 272.971 45.2402ZM267.27 45.2402C267.27 45.8418 267.349 46.3636 267.509 46.8057C267.668 47.2477 267.914 47.5895 268.247 47.8311C268.58 48.0726 269.008 48.1934 269.532 48.1934C270.052 48.1934 270.478 48.0726 270.811 47.8311C271.148 47.5895 271.396 47.2477 271.556 46.8057C271.715 46.3636 271.795 45.8418 271.795 45.2402C271.795 44.6432 271.715 44.1283 271.556 43.6953C271.396 43.2578 271.15 42.9206 270.817 42.6836C270.485 42.4466 270.054 42.3281 269.525 42.3281C268.746 42.3281 268.174 42.5856 267.81 43.1006C267.45 43.6156 267.27 44.3288 267.27 45.2402ZM277.934 49.1367C277.259 49.1367 276.664 48.9977 276.149 48.7197C275.634 48.4417 275.233 48.0179 274.946 47.4482C274.659 46.8786 274.516 46.1608 274.516 45.2949C274.516 44.388 274.666 43.6475 274.967 43.0732C275.272 42.4945 275.691 42.0661 276.225 41.7881C276.758 41.5101 277.364 41.3711 278.043 41.3711C278.417 41.3711 278.777 41.4098 279.123 41.4873C279.474 41.5602 279.761 41.6536 279.984 41.7676L279.643 42.7178C279.415 42.6266 279.15 42.5446 278.85 42.4717C278.553 42.3988 278.275 42.3623 278.016 42.3623C277.496 42.3623 277.063 42.474 276.717 42.6973C276.375 42.9206 276.118 43.2487 275.944 43.6816C275.776 44.1146 275.691 44.6478 275.691 45.2812C275.691 45.8874 275.773 46.4046 275.938 46.833C276.106 47.2614 276.354 47.5895 276.683 47.8174C277.015 48.0407 277.43 48.1523 277.927 48.1523C278.323 48.1523 278.681 48.1113 279 48.0293C279.319 47.9427 279.608 47.8424 279.868 47.7285V48.7402C279.618 48.8678 279.337 48.9658 279.027 49.0342C278.722 49.1025 278.357 49.1367 277.934 49.1367ZM284.448 41.3848C285.341 41.3848 286.005 41.5853 286.438 41.9863C286.87 42.3874 287.087 43.0277 287.087 43.9072V49H286.26L286.041 47.8926H285.986C285.777 48.166 285.558 48.3962 285.33 48.583C285.102 48.7653 284.838 48.9043 284.537 49C284.241 49.0911 283.876 49.1367 283.443 49.1367C282.988 49.1367 282.582 49.057 282.227 48.8975C281.876 48.738 281.598 48.4964 281.393 48.1729C281.192 47.8493 281.092 47.4391 281.092 46.9424C281.092 46.195 281.388 45.6208 281.98 45.2197C282.573 44.8187 283.475 44.5999 284.688 44.5635L285.979 44.5088V44.0508C285.979 43.4036 285.84 42.9502 285.562 42.6904C285.285 42.4307 284.893 42.3008 284.387 42.3008C283.995 42.3008 283.621 42.3577 283.266 42.4717C282.91 42.5856 282.573 42.7201 282.254 42.875L281.905 42.0137C282.243 41.8405 282.63 41.6924 283.067 41.5693C283.505 41.4463 283.965 41.3848 284.448 41.3848ZM285.966 45.3086L284.824 45.3564C283.89 45.3929 283.231 45.5456 282.849 45.8145C282.466 46.0833 282.274 46.4639 282.274 46.9561C282.274 47.3844 282.404 47.7012 282.664 47.9062C282.924 48.1113 283.268 48.2139 283.696 48.2139C284.362 48.2139 284.906 48.0293 285.33 47.6602C285.754 47.291 285.966 46.7373 285.966 45.999V45.3086ZM291.845 48.207C292.032 48.207 292.223 48.1911 292.419 48.1592C292.615 48.1273 292.774 48.0885 292.897 48.043V48.9248C292.765 48.984 292.581 49.0342 292.344 49.0752C292.111 49.1162 291.883 49.1367 291.66 49.1367C291.264 49.1367 290.904 49.0684 290.58 48.9316C290.257 48.7904 289.997 48.5534 289.801 48.2207C289.609 47.888 289.514 47.4277 289.514 46.8398V42.3965H288.447V41.8428L289.521 41.3984L289.972 39.7715H290.655V41.5078H292.85V42.3965H290.655V46.8057C290.655 47.2751 290.762 47.626 290.977 47.8584C291.195 48.0908 291.485 48.207 291.845 48.207ZM295.55 41.5078V49H294.415V41.5078H295.55ZM294.996 38.7051C295.183 38.7051 295.342 38.7666 295.475 38.8896C295.611 39.0081 295.68 39.195 295.68 39.4502C295.68 39.7008 295.611 39.8877 295.475 40.0107C295.342 40.1338 295.183 40.1953 294.996 40.1953C294.8 40.1953 294.636 40.1338 294.504 40.0107C294.376 39.8877 294.312 39.7008 294.312 39.4502C294.312 39.195 294.376 39.0081 294.504 38.8896C294.636 38.7666 294.8 38.7051 294.996 38.7051ZM304.416 45.2402C304.416 45.8555 304.336 46.4046 304.177 46.8877C304.017 47.3708 303.787 47.7786 303.486 48.1113C303.186 48.444 302.821 48.6992 302.393 48.877C301.969 49.0501 301.488 49.1367 300.95 49.1367C300.449 49.1367 299.989 49.0501 299.569 48.877C299.155 48.6992 298.795 48.444 298.489 48.1113C298.188 47.7786 297.954 47.3708 297.785 46.8877C297.621 46.4046 297.539 45.8555 297.539 45.2402C297.539 44.4199 297.678 43.7227 297.956 43.1484C298.234 42.5697 298.631 42.1299 299.146 41.8291C299.665 41.5238 300.283 41.3711 300.998 41.3711C301.682 41.3711 302.279 41.5238 302.789 41.8291C303.304 42.1344 303.703 42.5765 303.985 43.1553C304.272 43.7295 304.416 44.4245 304.416 45.2402ZM298.715 45.2402C298.715 45.8418 298.795 46.3636 298.954 46.8057C299.114 47.2477 299.36 47.5895 299.692 47.8311C300.025 48.0726 300.453 48.1934 300.978 48.1934C301.497 48.1934 301.923 48.0726 302.256 47.8311C302.593 47.5895 302.841 47.2477 303.001 46.8057C303.16 46.3636 303.24 45.8418 303.24 45.2402C303.24 44.6432 303.16 44.1283 303.001 43.6953C302.841 43.2578 302.595 42.9206 302.263 42.6836C301.93 42.4466 301.499 42.3281 300.971 42.3281C300.191 42.3281 299.619 42.5856 299.255 43.1006C298.895 43.6156 298.715 44.3288 298.715 45.2402ZM309.926 41.3711C310.814 41.3711 311.487 41.5898 311.942 42.0273C312.398 42.4603 312.626 43.1576 312.626 44.1191V49H311.505V44.1943C311.505 43.57 311.361 43.1029 311.074 42.793C310.792 42.4831 310.356 42.3281 309.769 42.3281C308.939 42.3281 308.356 42.5628 308.019 43.0322C307.681 43.5016 307.513 44.1829 307.513 45.0762V49H306.378V41.5078H307.294L307.465 42.5879H307.526C307.686 42.3236 307.889 42.1025 308.135 41.9248C308.381 41.7425 308.657 41.6058 308.962 41.5146C309.267 41.4189 309.589 41.3711 309.926 41.3711ZM319.811 46.9492C319.811 47.4277 319.69 47.8311 319.448 48.1592C319.211 48.4827 318.869 48.7266 318.423 48.8906C317.981 49.0547 317.452 49.1367 316.837 49.1367C316.313 49.1367 315.859 49.0957 315.477 49.0137C315.094 48.9316 314.759 48.8154 314.472 48.665V47.6191C314.777 47.7695 315.142 47.9062 315.565 48.0293C315.989 48.1523 316.422 48.2139 316.864 48.2139C317.511 48.2139 317.981 48.109 318.272 47.8994C318.564 47.6898 318.71 47.4049 318.71 47.0449C318.71 46.8398 318.651 46.6598 318.532 46.5049C318.418 46.3454 318.225 46.1927 317.951 46.0469C317.678 45.8965 317.299 45.7324 316.816 45.5547C316.338 45.3724 315.923 45.1924 315.572 45.0146C315.226 44.8324 314.957 44.6113 314.766 44.3516C314.579 44.0918 314.485 43.7546 314.485 43.3398C314.485 42.7064 314.741 42.221 315.251 41.8838C315.766 41.542 316.44 41.3711 317.274 41.3711C317.726 41.3711 318.147 41.4167 318.539 41.5078C318.936 41.5944 319.305 41.7129 319.646 41.8633L319.264 42.7725C318.954 42.6403 318.623 42.5286 318.272 42.4375C317.922 42.3464 317.564 42.3008 317.199 42.3008C316.675 42.3008 316.272 42.3874 315.989 42.5605C315.711 42.7337 315.572 42.9707 315.572 43.2715C315.572 43.5039 315.636 43.6953 315.764 43.8457C315.896 43.9961 316.105 44.1374 316.393 44.2695C316.68 44.4017 317.058 44.5566 317.527 44.7344C317.997 44.9076 318.402 45.0876 318.744 45.2744C319.086 45.4567 319.348 45.68 319.53 45.9443C319.717 46.2041 319.811 46.5391 319.811 46.9492Z" fill="white" fill-opacity="0.72"/>
</svg>
