<svg width="374" height="311" viewBox="0 0 374 311" fill="none" xmlns="http://www.w3.org/2000/svg">
<rect width="358" height="110" rx="10" fill="#151516"/>
<path d="M466.084 105.851C455.916 111.722 449.575 100.739 439.404 106.61C429.234 112.482 435.575 123.465 425.407 129.335C415.238 135.206 408.896 124.223 398.725 130.095C388.555 135.966 394.898 146.949 384.728 152.82C374.558 158.692 368.217 147.708 358.048 153.579C347.88 159.449 354.219 170.434 344.049 176.305C333.879 182.176 327.538 171.193 317.367 177.065C307.197 182.936 313.538 193.919 303.368 199.791" stroke="white" stroke-opacity="0.08" stroke-width="2" stroke-miterlimit="10"/>
<path d="M447.07 72.9172C436.902 78.7876 430.561 67.8043 420.391 73.6757C410.221 79.5472 416.561 90.5305 406.393 96.401C396.225 102.271 389.882 91.2891 379.712 97.1606C369.542 103.032 375.884 114.014 365.714 119.886C355.544 125.757 349.203 114.774 339.035 120.644C328.866 126.515 335.205 137.499 325.035 143.371C314.865 149.242 308.524 138.259 298.354 144.13C288.184 150.002 294.524 160.985 284.354 166.857" stroke="white" stroke-opacity="0.08" stroke-width="2" stroke-miterlimit="10"/>
<path d="M485.098 138.785C474.929 144.655 468.588 133.672 458.418 139.543C448.248 145.415 454.589 156.398 444.421 162.269C434.252 168.139 427.909 157.157 417.739 163.028C407.569 168.9 413.912 179.882 403.742 185.753C393.571 191.625 387.23 180.642 377.062 186.512C366.894 192.382 373.233 203.367 363.063 209.238C352.892 215.11 346.551 204.126 336.381 209.998C326.211 215.869 332.552 226.853 322.382 232.724" stroke="white" stroke-opacity="0.08" stroke-width="2" stroke-miterlimit="10"/>
<path d="M513.618 188.185C503.449 194.056 497.108 183.072 486.938 188.944C476.768 194.815 483.109 205.799 472.94 211.669C462.772 217.539 456.429 206.557 446.259 212.429C436.089 218.3 442.432 229.282 432.261 235.154C422.091 241.025 415.75 230.042 405.582 235.912C395.413 241.783 401.753 252.767 391.582 258.639C381.412 264.51 375.071 253.527 364.901 259.398C354.731 265.27 361.072 276.253 350.901 282.125" stroke="white" stroke-opacity="0.08" stroke-width="2" stroke-miterlimit="10"/>
<path d="M437.564 56.4506C427.396 62.321 421.055 51.3377 410.885 57.2092C400.715 63.0807 407.056 74.064 396.887 79.9344C386.719 85.8048 380.376 74.8225 370.206 80.694C360.036 86.5655 366.378 97.5478 356.208 103.419C346.038 109.291 339.697 98.3074 329.529 104.178C319.36 110.048 325.699 121.033 315.529 126.904C305.359 132.776 299.018 121.792 288.848 127.664C278.678 133.535 285.019 144.519 274.848 150.39" stroke="white" stroke-opacity="0.08" stroke-width="2" stroke-miterlimit="10"/>
<path d="M475.591 122.318C465.423 128.188 459.082 117.205 448.911 123.076C438.741 128.948 445.082 139.931 434.914 145.802C424.745 151.672 418.403 140.69 408.232 146.561C398.062 152.433 404.405 163.415 394.235 169.286C384.065 175.158 377.724 164.175 367.555 170.045C357.387 175.915 363.726 186.9 353.556 192.771C343.386 198.643 337.045 187.659 326.874 193.531C316.704 199.402 323.045 210.386 312.875 216.257" stroke="white" stroke-opacity="0.08" stroke-width="2" stroke-miterlimit="10"/>
<path d="M504.111 171.719C493.942 177.589 487.601 166.606 477.431 172.477C467.261 178.349 473.602 189.332 463.433 195.202C453.265 201.073 446.922 190.091 436.752 195.962C426.582 201.834 432.925 212.816 422.754 218.687C412.584 224.559 406.243 213.575 396.075 219.446C385.907 225.316 392.246 236.301 382.075 242.172C371.905 248.044 365.564 237.06 355.394 242.932C345.224 248.803 351.565 259.787 341.395 265.658" stroke="white" stroke-opacity="0.08" stroke-width="2" stroke-miterlimit="10"/>
<path d="M456.577 89.3842C446.409 95.2546 440.068 84.2713 429.898 90.1428C419.728 96.0142 426.068 106.998 415.9 112.868C405.732 118.738 399.389 107.756 389.219 113.628C379.049 119.499 385.391 130.481 375.221 136.353C365.051 142.224 358.71 131.241 348.542 137.111C338.373 142.982 344.712 153.966 334.542 159.838C324.372 165.709 318.031 154.726 307.861 160.597C297.69 166.469 304.031 177.452 293.861 183.324" stroke="white" stroke-opacity="0.08" stroke-width="2" stroke-miterlimit="10"/>
<path d="M494.604 155.251C484.435 161.122 478.094 150.138 467.924 156.01C457.754 161.881 464.095 172.865 453.926 178.735C443.758 184.606 437.415 173.623 427.245 179.495C417.075 185.366 423.418 196.349 413.247 202.22C403.077 208.092 396.736 197.108 386.568 202.979C376.4 208.849 382.739 219.833 372.568 225.705C362.398 231.576 356.057 220.593 345.887 226.465C335.717 232.336 342.058 243.319 331.888 249.191" stroke="white" stroke-opacity="0.08" stroke-width="2" stroke-miterlimit="10"/>
<path d="M523.124 204.652C512.956 210.523 506.615 199.539 496.445 205.411C486.275 211.282 492.616 222.266 482.447 228.136C472.279 234.006 465.936 223.024 455.766 228.896C445.596 234.767 451.938 245.749 441.768 251.621C431.598 257.492 425.257 246.509 415.089 252.379C404.92 258.25 411.259 269.234 401.089 275.106C390.919 280.977 384.578 269.994 374.408 275.865C364.238 281.737 370.579 292.72 360.408 298.592" stroke="white" stroke-opacity="0.08" stroke-width="2" stroke-miterlimit="10"/>
<path d="M469.25 111.335C459.081 117.205 452.74 106.222 442.57 112.093C432.4 117.965 438.741 128.948 428.572 134.818C418.404 140.689 412.061 129.707 401.891 135.578C391.721 141.45 398.064 152.432 387.893 158.303C377.723 164.175 371.382 153.191 361.214 159.062C351.046 164.932 357.385 175.917 347.214 181.788C337.044 187.66 330.703 176.676 320.533 182.548C310.363 188.419 316.704 199.403 306.534 205.274" stroke="white" stroke-opacity="0.08" stroke-width="2" stroke-miterlimit="10"/>
<path d="M450.237 78.4008C440.068 84.2712 433.727 73.2879 423.557 79.1594C413.387 85.0309 419.728 96.0142 409.56 101.885C399.391 107.755 393.048 96.7727 382.878 102.644C372.708 108.516 379.051 119.498 368.881 125.369C358.71 131.241 352.369 120.258 342.201 126.128C332.033 131.998 338.372 142.983 328.202 148.854C318.031 154.726 311.69 143.742 301.52 149.614C291.35 155.485 297.691 166.469 287.521 172.34" stroke="white" stroke-opacity="0.08" stroke-width="2" stroke-miterlimit="10"/>
<path d="M488.263 144.268C478.095 150.139 471.754 139.155 461.584 145.027C451.414 150.898 457.755 161.882 447.586 167.752C437.418 173.622 431.075 162.64 420.905 168.512C410.735 174.383 417.077 185.365 406.907 191.237C396.737 197.108 390.396 186.125 380.228 191.995C370.059 197.866 376.398 208.85 366.228 214.722C356.058 220.593 349.717 209.61 339.547 215.481C329.377 221.353 335.717 232.336 325.547 238.208" stroke="white" stroke-opacity="0.08" stroke-width="2" stroke-miterlimit="10"/>
<path d="M516.783 193.669C506.615 199.54 500.274 188.556 490.103 194.428C479.933 200.299 486.274 211.282 476.106 217.153C465.937 223.023 459.595 212.041 449.424 217.913C439.254 223.784 445.597 234.766 435.427 240.638C425.257 246.509 418.916 235.526 408.747 241.396C398.579 247.267 404.918 258.251 394.748 264.123C384.578 269.994 378.237 259.011 368.066 264.882C357.896 270.754 364.237 281.737 354.067 287.609" stroke="white" stroke-opacity="0.08" stroke-width="2" stroke-miterlimit="10"/>
<path d="M440.73 61.9338C430.562 67.8042 424.221 56.8209 414.051 62.6923C403.88 68.5638 410.221 79.5471 400.053 85.4176C389.884 91.288 383.542 80.3057 373.371 86.1772C363.201 92.0487 369.544 103.031 359.374 108.902C349.204 114.774 342.863 103.791 332.694 109.661C322.526 115.531 328.865 126.516 318.695 132.387C308.525 138.259 302.184 127.275 292.013 133.147C281.843 139.018 288.184 150.002 278.014 155.873" stroke="white" stroke-opacity="0.08" stroke-width="2" stroke-miterlimit="10"/>
<path d="M478.756 127.802C468.588 133.672 462.247 122.689 452.077 128.56C441.907 134.432 448.248 145.415 438.079 151.285C427.911 157.156 421.568 146.174 411.398 152.045C401.228 157.917 407.57 168.899 397.4 174.77C387.23 180.642 380.889 169.658 370.721 175.529C360.552 181.399 366.891 192.384 356.721 198.255C346.551 204.127 340.21 193.143 330.04 199.015C319.87 204.886 326.211 215.87 316.04 221.741" stroke="white" stroke-opacity="0.08" stroke-width="2" stroke-miterlimit="10"/>
<path d="M507.276 177.202C497.108 183.072 490.767 172.089 480.597 177.96C470.426 183.832 476.767 194.815 466.599 200.685C456.431 206.556 450.088 195.574 439.918 201.445C429.747 207.316 436.09 218.299 425.92 224.17C415.75 230.042 409.409 219.058 399.24 224.929C389.072 230.799 395.411 241.784 385.241 247.655C375.071 253.527 368.73 242.543 358.56 248.415C348.389 254.286 354.73 265.27 344.56 271.141" stroke="white" stroke-opacity="0.08" stroke-width="2" stroke-miterlimit="10"/>
<path d="M459.743 94.8676C449.574 100.738 443.233 89.7547 433.063 95.6262C422.893 101.498 429.234 112.481 419.065 118.351C408.897 124.222 402.554 113.24 392.384 119.111C382.214 124.982 388.557 135.965 378.386 141.836C368.216 147.708 361.875 136.724 351.707 142.595C341.539 148.465 347.878 159.45 337.707 165.321C327.537 171.193 321.196 160.209 311.026 166.081C300.856 171.952 307.197 182.936 297.027 188.807" stroke="white" stroke-opacity="0.08" stroke-width="2" stroke-miterlimit="10"/>
<path d="M497.77 160.735C487.602 166.605 481.261 155.622 471.091 161.494C460.92 167.365 467.261 178.348 457.093 184.219C446.925 190.089 440.582 179.107 430.412 184.978C420.241 190.85 426.584 201.832 416.414 207.704C406.244 213.575 399.903 202.592 389.734 208.462C379.566 214.333 385.905 225.317 375.735 231.189C365.565 237.06 359.224 226.077 349.054 231.948C338.883 237.82 345.224 248.803 335.054 254.674" stroke="white" stroke-opacity="0.08" stroke-width="2" stroke-miterlimit="10"/>
<path d="M526.29 210.136C516.122 216.006 509.781 205.023 499.61 210.894C489.44 216.766 495.781 227.749 485.613 233.619C475.444 239.49 469.102 228.508 458.931 234.379C448.761 240.251 455.104 251.233 444.934 257.104C434.763 262.976 428.423 251.992 418.254 257.863C408.086 263.733 414.425 274.718 404.255 280.589C394.084 286.461 387.744 275.477 377.573 281.349C367.403 287.22 373.744 298.204 363.574 304.075" stroke="white" stroke-opacity="0.08" stroke-width="2" stroke-miterlimit="10"/>
<path d="M431.223 45.467C421.055 51.3374 414.714 40.3541 404.544 46.2255C394.373 52.097 400.714 63.0803 390.546 68.9508C380.378 74.8212 374.035 63.8389 363.865 69.7104C353.694 75.5819 360.037 86.5641 349.867 92.4356C339.697 98.3071 333.356 87.3238 323.187 93.1942C313.019 99.0646 319.358 110.049 309.188 115.92C299.018 121.792 292.677 110.809 282.507 116.68C272.336 122.552 278.677 133.535 268.507 139.406" stroke="white" stroke-opacity="0.08" stroke-width="2" stroke-miterlimit="10"/>
<path d="M469.25 111.335C459.081 117.205 452.74 106.222 442.57 112.093C432.4 117.965 438.741 128.948 428.572 134.818C418.404 140.689 412.061 129.707 401.891 135.578C391.721 141.45 398.064 152.432 387.893 158.303C377.723 164.175 371.382 153.191 361.214 159.062C351.046 164.932 357.385 175.917 347.214 181.788C337.044 187.66 330.703 176.676 320.533 182.548C310.363 188.419 316.704 199.403 306.534 205.274" stroke="white" stroke-opacity="0.08" stroke-width="2" stroke-miterlimit="10"/>
<path d="M450.237 78.4008C440.068 84.2712 433.727 73.2879 423.557 79.1594C413.387 85.0309 419.728 96.0142 409.56 101.885C399.391 107.755 393.048 96.7727 382.878 102.644C372.708 108.516 379.051 119.498 368.881 125.369C358.71 131.241 352.369 120.258 342.201 126.128C332.033 131.998 338.372 142.983 328.202 148.854C318.031 154.726 311.69 143.742 301.52 149.614C291.35 155.485 297.691 166.469 287.521 172.34" stroke="white" stroke-opacity="0.08" stroke-width="2" stroke-miterlimit="10"/>
<path d="M488.263 144.268C478.095 150.139 471.754 139.155 461.584 145.027C451.414 150.898 457.755 161.882 447.586 167.752C437.418 173.622 431.075 162.64 420.905 168.512C410.735 174.383 417.077 185.365 406.907 191.237C396.737 197.108 390.396 186.125 380.228 191.995C370.059 197.866 376.398 208.85 366.228 214.722C356.058 220.593 349.717 209.61 339.547 215.481C329.377 221.353 335.717 232.336 325.547 238.208" stroke="white" stroke-opacity="0.08" stroke-width="2" stroke-miterlimit="10"/>
<path d="M516.783 193.669C506.615 199.54 500.274 188.556 490.103 194.428C479.933 200.299 486.274 211.282 476.106 217.153C465.937 223.023 459.595 212.041 449.424 217.913C439.254 223.784 445.597 234.766 435.427 240.638C425.257 246.509 418.916 235.526 408.747 241.396C398.579 247.267 404.918 258.251 394.748 264.123C384.578 269.994 378.237 259.011 368.066 264.882C357.896 270.754 364.237 281.737 354.067 287.609" stroke="white" stroke-opacity="0.08" stroke-width="2" stroke-miterlimit="10"/>
<path d="M440.73 61.9338C430.562 67.8042 424.221 56.8209 414.051 62.6923C403.88 68.5638 410.221 79.5471 400.053 85.4176C389.884 91.288 383.542 80.3057 373.371 86.1772C363.201 92.0487 369.544 103.031 359.374 108.902C349.204 114.774 342.863 103.791 332.694 109.661C322.526 115.531 328.865 126.516 318.695 132.387C308.525 138.259 302.184 127.275 292.013 133.147C281.843 139.018 288.184 150.002 278.014 155.873" stroke="white" stroke-opacity="0.08" stroke-width="2" stroke-miterlimit="10"/>
<path d="M478.756 127.802C468.588 133.672 462.247 122.689 452.077 128.56C441.907 134.432 448.248 145.415 438.079 151.285C427.911 157.156 421.568 146.174 411.398 152.045C401.228 157.917 407.57 168.899 397.4 174.77C387.23 180.642 380.889 169.658 370.721 175.529C360.552 181.399 366.891 192.384 356.721 198.255C346.551 204.127 340.21 193.143 330.04 199.015C319.87 204.886 326.211 215.87 316.04 221.741" stroke="white" stroke-opacity="0.08" stroke-width="2" stroke-miterlimit="10"/>
<path d="M507.276 177.202C497.108 183.072 490.767 172.089 480.597 177.96C470.426 183.832 476.767 194.815 466.599 200.685C456.431 206.556 450.088 195.574 439.918 201.445C429.747 207.316 436.09 218.299 425.92 224.17C415.75 230.042 409.409 219.058 399.24 224.929C389.072 230.799 395.411 241.784 385.241 247.655C375.071 253.527 368.73 242.543 358.56 248.415C348.389 254.286 354.73 265.27 344.56 271.141" stroke="white" stroke-opacity="0.08" stroke-width="2" stroke-miterlimit="10"/>
<path d="M459.743 94.8676C449.574 100.738 443.233 89.7547 433.063 95.6262C422.893 101.498 429.234 112.481 419.065 118.351C408.897 124.222 402.554 113.24 392.384 119.111C382.214 124.982 388.557 135.965 378.386 141.836C368.216 147.708 361.875 136.724 351.707 142.595C341.539 148.465 347.878 159.45 337.707 165.321C327.537 171.193 321.196 160.209 311.026 166.081C300.856 171.952 307.197 182.936 297.027 188.807" stroke="white" stroke-opacity="0.08" stroke-width="2" stroke-miterlimit="10"/>
<path d="M497.77 160.735C487.602 166.605 481.261 155.622 471.091 161.494C460.92 167.365 467.261 178.348 457.093 184.219C446.925 190.089 440.582 179.107 430.412 184.978C420.241 190.85 426.584 201.832 416.414 207.704C406.244 213.575 399.903 202.592 389.734 208.462C379.566 214.333 385.905 225.317 375.735 231.189C365.565 237.06 359.224 226.077 349.054 231.948C338.883 237.82 345.224 248.803 335.054 254.674" stroke="white" stroke-opacity="0.08" stroke-width="2" stroke-miterlimit="10"/>
<path d="M526.29 210.136C516.122 216.006 509.781 205.023 499.61 210.894C489.44 216.766 495.781 227.749 485.613 233.619C475.444 239.49 469.102 228.508 458.931 234.379C448.761 240.251 455.104 251.233 444.934 257.104C434.763 262.976 428.423 251.992 418.254 257.863C408.086 263.733 414.425 274.718 404.255 280.589C394.084 286.461 387.744 275.477 377.573 281.349C367.403 287.22 373.744 298.204 363.574 304.075" stroke="white" stroke-opacity="0.08" stroke-width="2" stroke-miterlimit="10"/>
<path d="M434.389 50.9504C424.22 56.8208 417.879 45.8375 407.709 51.7089C397.539 57.5804 403.88 68.5637 393.712 74.4342C383.543 80.3046 377.2 69.3223 367.03 75.1938C356.86 81.0653 363.203 92.0475 353.033 97.919C342.862 103.79 336.521 92.8072 326.353 98.6776C316.185 104.548 322.524 115.532 312.353 121.404C302.183 127.275 295.842 116.292 285.672 122.163C275.502 128.035 281.843 139.018 271.673 144.89" stroke="white" stroke-opacity="0.08" stroke-width="2" stroke-miterlimit="10"/>
<path d="M472.415 116.818C462.247 122.688 455.906 111.705 445.736 117.576C435.565 123.448 441.906 134.431 431.738 140.302C421.57 146.172 415.227 135.19 405.057 141.061C394.886 146.933 401.229 157.915 391.059 163.786C380.889 169.658 374.548 158.675 364.379 164.545C354.211 170.415 360.55 181.4 350.38 187.271C340.21 193.143 333.869 182.159 323.699 188.031C313.528 193.902 319.869 204.886 309.699 210.757" stroke="white" stroke-opacity="0.08" stroke-width="2" stroke-miterlimit="10"/>
<path d="M453.402 83.8842C443.234 89.7546 436.893 78.7713 426.723 84.6428C416.553 90.5142 422.894 101.498 412.725 107.368C402.557 113.238 396.214 102.256 386.044 108.128C375.874 113.999 382.216 124.981 372.046 130.853C361.876 136.724 355.535 125.741 345.367 131.611C335.198 137.482 341.537 148.466 331.367 154.338C321.197 160.209 314.856 149.226 304.686 155.097C294.516 160.969 300.857 171.952 290.686 177.824" stroke="white" stroke-opacity="0.08" stroke-width="2" stroke-miterlimit="10"/>
<path d="M491.429 149.752C481.26 155.623 474.92 144.639 464.749 150.511C454.579 156.382 460.92 167.366 450.752 173.236C440.583 179.106 434.241 168.124 424.07 173.996C413.9 179.867 420.243 190.849 410.073 196.721C399.902 202.592 393.561 191.609 383.393 197.479C373.225 203.35 379.564 214.334 369.394 220.206C359.223 226.077 352.882 215.094 342.712 220.965C332.542 226.837 338.883 237.82 328.713 243.692" stroke="white" stroke-opacity="0.08" stroke-width="2" stroke-miterlimit="10"/>
<path d="M519.948 199.153C509.78 205.023 503.439 194.04 493.269 199.911C483.099 205.783 489.44 216.766 479.271 222.636C469.103 228.507 462.76 217.524 452.59 223.396C442.42 229.267 448.762 240.25 438.592 246.121C428.422 251.993 422.081 241.009 411.913 246.88C401.744 252.75 408.083 263.735 397.913 269.606C387.743 275.477 381.402 264.494 371.232 270.366C361.062 276.237 367.402 287.22 357.232 293.092" stroke="white" stroke-opacity="0.08" stroke-width="2" stroke-miterlimit="10"/>
<path d="M443.896 67.4172C433.727 73.2876 427.386 62.3043 417.216 68.1757C407.046 74.0472 413.387 85.0305 403.218 90.901C393.05 96.7714 386.707 85.7891 376.537 91.6606C366.367 97.5321 372.71 108.514 362.539 114.386C352.369 120.257 346.028 109.274 335.86 115.144C325.691 121.015 332.031 131.999 321.86 137.871C311.69 143.742 305.349 132.759 295.179 138.63C285.009 144.502 291.35 155.485 281.179 161.357" stroke="white" stroke-opacity="0.08" stroke-width="2" stroke-miterlimit="10"/>
<path d="M481.922 133.285C471.754 139.156 465.413 128.172 455.243 134.044C445.072 139.915 451.413 150.898 441.245 156.769C431.076 162.639 424.734 151.657 414.564 157.528C404.393 163.4 410.736 174.382 400.566 180.254C390.396 186.125 384.055 175.142 373.886 181.012C363.718 186.883 370.057 197.867 359.887 203.739C349.717 209.61 343.376 198.627 333.205 204.498C323.035 210.37 329.376 221.353 319.206 227.224" stroke="white" stroke-opacity="0.08" stroke-width="2" stroke-miterlimit="10"/>
<path d="M510.443 182.685C500.274 188.556 493.933 177.572 483.763 183.444C473.593 189.315 479.934 200.299 469.765 206.169C459.597 212.039 453.254 201.057 443.084 206.929C432.914 212.8 439.257 223.782 429.086 229.654C418.916 235.525 412.575 224.542 402.407 230.412C392.239 236.283 398.578 247.267 388.407 253.139C378.237 259.01 371.896 248.027 361.726 253.898C351.556 259.77 357.897 270.753 347.727 276.625" stroke="white" stroke-opacity="0.08" stroke-width="2" stroke-miterlimit="10"/>
<path d="M462.909 100.351C452.741 106.222 446.4 95.2383 436.23 101.11C426.059 106.981 432.4 117.965 422.232 123.835C412.064 129.705 405.721 118.723 395.551 124.595C385.38 130.466 391.723 141.448 381.553 147.32C371.383 153.191 365.042 142.208 354.873 148.078C344.705 153.949 351.044 164.933 340.874 170.805C330.704 176.676 324.363 165.693 314.193 171.564C304.022 177.436 310.363 188.419 300.193 194.291" stroke="white" stroke-opacity="0.08" stroke-width="2" stroke-miterlimit="10"/>
<path d="M500.936 166.218C490.767 172.089 484.426 161.106 474.256 166.977C464.086 172.848 470.427 183.832 460.259 189.702C450.09 195.573 443.747 184.59 433.577 190.462C423.407 196.333 429.75 207.316 419.58 213.187C409.409 219.059 403.068 208.075 392.9 213.946C382.732 219.816 389.071 230.8 378.901 236.672C368.73 242.543 362.389 231.56 352.219 237.432C342.049 243.303 348.39 254.286 338.22 260.158" stroke="white" stroke-opacity="0.08" stroke-width="2" stroke-miterlimit="10"/>
<path d="M529.455 215.619C519.287 221.49 512.946 210.506 502.776 216.378C492.605 222.249 498.946 233.233 488.778 239.103C478.61 244.974 472.267 233.991 462.097 239.863C451.926 245.734 458.269 256.716 448.099 262.588C437.929 268.459 431.588 257.476 421.419 263.347C411.251 269.217 417.59 280.201 407.42 286.073C397.25 291.944 390.909 280.961 380.739 286.832C370.568 292.704 376.909 303.687 366.739 309.559" stroke="white" stroke-opacity="0.08" stroke-width="2" stroke-miterlimit="10"/>
<path d="M428.057 39.9836C417.889 45.854 411.548 34.8707 401.378 40.7421C391.208 46.6136 397.549 57.5969 387.38 63.4674C377.212 69.3378 370.869 58.3555 360.699 64.227C350.529 70.0985 356.871 81.0807 346.701 86.9522C336.531 92.8237 330.19 81.8404 320.022 87.7108C309.853 93.5812 316.192 104.566 306.022 110.437C295.852 116.309 289.511 105.325 279.341 111.197C269.171 117.068 275.512 128.051 265.341 133.923" stroke="white" stroke-opacity="0.08" stroke-width="2" stroke-miterlimit="10"/>
<path d="M431.223 45.467C421.055 51.3374 414.714 40.3541 404.544 46.2255C394.373 52.097 400.714 63.0803 390.546 68.9508C380.378 74.8212 374.035 63.8389 363.865 69.7104C353.694 75.5819 360.037 86.5641 349.867 92.4356C339.697 98.3071 333.356 87.3238 323.187 93.1942C313.019 99.0646 319.358 110.049 309.188 115.92C299.018 121.792 292.677 110.809 282.507 116.68C272.336 122.552 278.677 133.535 268.507 139.406" stroke="white" stroke-opacity="0.08" stroke-width="2" stroke-miterlimit="10"/>
</svg>
