<svg width="1312" height="138" viewBox="0 0 1312 138" fill="none" xmlns="http://www.w3.org/2000/svg">
<g clip-path="url(#clip0_1_581)">
<rect width="1312" height="138" rx="20" fill="#151516"/>
<path d="M-189.483 76.4823C-173.576 92.3901 -190.758 109.573 -174.848 125.483C-158.937 141.394 -141.754 124.211 -125.847 140.119C-109.939 156.027 -127.119 173.212 -111.208 189.123C-95.2974 205.034 -78.1176 187.848 -62.207 203.759C-46.2964 219.669 -63.4791 236.852 -47.5713 252.76C-31.6636 268.667 -14.478 251.488 1.43263 267.398C17.3432 283.309 0.160557 300.492 16.0712 316.402C31.9818 332.313 49.1645 315.13 65.0751 331.041" stroke="white" stroke-opacity="0.08" stroke-width="2" stroke-miterlimit="10"/>
<path d="M-241.005 128.005C-225.097 143.913 -242.28 161.095 -226.369 177.006C-210.459 192.916 -193.276 175.734 -177.368 191.642C-161.46 207.549 -178.64 224.735 -162.73 240.645C-146.819 256.556 -129.639 239.371 -113.728 255.281C-97.8178 271.192 -115.001 288.374 -99.0928 304.282C-83.185 320.19 -65.9995 303.01 -50.0889 318.921C-34.1782 334.831 -51.3609 352.014 -35.4503 367.925C-19.5397 383.835 -2.35699 366.653 13.5536 382.563" stroke="white" stroke-opacity="0.08" stroke-width="2" stroke-miterlimit="10"/>
<path d="M-137.96 24.9594C-122.052 40.8671 -139.235 58.0498 -123.324 73.9605C-107.414 89.8711 -90.2309 72.6884 -74.3231 88.5961C-58.4154 104.504 -75.5952 121.689 -59.6846 137.6C-43.774 153.511 -26.5942 136.325 -10.6835 152.236C5.22708 168.146 -11.9556 185.329 3.95213 201.237C19.8599 217.145 37.0454 199.965 52.9561 215.875C68.8667 231.786 51.684 248.969 67.5946 264.879C83.5052 280.79 100.688 263.607 116.599 279.518" stroke="white" stroke-opacity="0.08" stroke-width="2" stroke-miterlimit="10"/>
<path d="M-60.6767 -52.3243C-44.7689 -36.4165 -61.9516 -19.2339 -46.041 -3.32323C-30.1304 12.5874 -12.9477 -4.59531 2.96005 11.3124C18.8678 27.2202 1.68798 44.4058 17.5986 60.3164C33.5092 76.227 50.689 59.0414 66.5997 74.952C82.5103 90.8627 65.3276 108.045 81.2353 123.953C97.1431 139.861 114.329 122.681 130.239 138.592C146.15 154.502 128.967 171.685 144.878 187.596C160.788 203.506 177.971 186.324 193.882 202.234" stroke="white" stroke-opacity="0.08" stroke-width="2" stroke-miterlimit="10"/>
<path d="M-163.722 50.7211C-147.814 66.6289 -164.997 83.8116 -149.086 99.7222C-133.175 115.633 -115.993 98.4501 -100.085 114.358C-84.1771 130.266 -101.357 147.451 -85.4463 163.362C-69.5357 179.272 -52.3559 162.087 -36.4453 177.997C-20.5346 193.908 -37.7173 211.091 -21.8096 226.999C-5.90184 242.906 11.2837 225.726 27.1943 241.637C43.105 257.548 25.9223 274.73 41.8329 290.641C57.7435 306.552 74.9262 289.369 90.8368 305.28" stroke="white" stroke-opacity="0.08" stroke-width="2" stroke-miterlimit="10"/>
<path d="M-86.4364 -26.5631C-70.5287 -10.6553 -87.7114 6.52738 -71.8008 22.438C-55.8902 38.3486 -38.7075 21.1659 -22.7997 37.0737C-6.89196 52.9814 -24.0718 70.167 -8.16116 86.0776C7.74945 101.988 24.9293 84.8027 40.8399 100.713C56.7505 116.624 39.5678 133.807 55.4756 149.714C71.3833 165.622 88.5689 148.442 104.48 164.353C120.39 180.264 103.207 197.446 119.118 213.357C135.029 229.267 152.211 212.085 168.122 227.995" stroke="white" stroke-opacity="0.08" stroke-width="2" stroke-miterlimit="10"/>
<path d="M-215.243 102.244C-199.335 118.151 -216.518 135.334 -200.607 151.245C-184.697 167.155 -167.514 149.973 -151.606 165.88C-135.699 181.788 -152.878 198.974 -136.968 214.884C-121.057 230.795 -103.877 213.609 -87.9667 229.52C-72.0561 245.431 -89.2388 262.613 -73.3311 278.521C-57.4233 294.429 -40.2378 277.249 -24.3271 293.16C-8.41652 309.07 -25.5992 326.253 -9.68859 342.163C6.22203 358.074 23.4047 340.891 39.3153 356.802" stroke="white" stroke-opacity="0.08" stroke-width="2" stroke-miterlimit="10"/>
<path d="M-112.198 -0.801835C-96.2904 15.1059 -113.473 32.2886 -97.5625 48.1992C-81.6519 64.1098 -64.4692 46.9272 -48.5614 62.8349C-32.6537 78.7426 -49.8335 95.9282 -33.9229 111.839C-18.0123 127.749 -0.83244 110.564 15.0782 126.475C30.9888 142.385 13.8061 159.568 29.7139 175.476C45.6216 191.383 62.8072 174.203 78.7178 190.114C94.6284 206.025 77.4457 223.207 93.3563 239.118C109.267 255.029 126.45 237.846 142.36 253.757" stroke="white" stroke-opacity="0.08" stroke-width="2" stroke-miterlimit="10"/>
<path d="M-34.915 -78.0855C-19.0072 -62.1778 -36.1899 -44.9951 -20.2793 -29.0845C-4.36867 -13.1738 12.814 -30.3565 28.7218 -14.4488C44.6295 1.45896 27.4497 18.6445 43.3603 34.5551C59.2709 50.4658 76.4508 33.2802 92.3614 49.1908C108.272 65.1014 91.0893 82.2841 106.997 98.1919C122.905 114.1 140.09 96.9198 156.001 112.83C171.912 128.741 154.729 145.924 170.64 161.834C186.55 177.745 203.733 160.562 219.643 176.473" stroke="white" stroke-opacity="0.08" stroke-width="2" stroke-miterlimit="10"/>
<path d="M-180.905 67.9037C-164.997 83.8115 -182.18 100.994 -166.27 116.905C-150.359 132.815 -133.176 115.633 -117.268 131.54C-101.361 147.448 -118.541 164.634 -102.63 180.544C-86.7193 196.455 -69.5395 179.269 -53.6289 195.18C-37.7182 211.091 -54.9009 228.273 -38.9932 244.181C-23.0854 260.089 -5.89986 242.909 10.0108 258.82C25.9214 274.73 8.73868 291.913 24.6493 307.824C40.5599 323.734 57.7426 306.552 73.6532 322.462" stroke="white" stroke-opacity="0.08" stroke-width="2" stroke-miterlimit="10"/>
<path d="M-232.427 119.426C-216.519 135.334 -233.702 152.517 -217.791 168.427C-201.88 184.338 -184.698 167.155 -168.79 183.063C-152.882 198.971 -170.062 216.156 -154.151 232.067C-138.241 247.977 -121.061 230.792 -105.15 246.703C-89.2397 262.613 -106.422 279.796 -90.5147 295.704C-74.6069 311.611 -57.4213 294.432 -41.5107 310.342C-25.6001 326.253 -42.7828 343.435 -26.8722 359.346C-10.9616 375.257 6.22113 358.074 22.1318 373.985" stroke="white" stroke-opacity="0.08" stroke-width="2" stroke-miterlimit="10"/>
<path d="M-129.382 16.3808C-113.474 32.2885 -130.657 49.4712 -114.746 65.3818C-98.8355 81.2925 -81.6528 64.1098 -65.745 80.0175C-49.8373 95.9253 -67.0171 113.111 -51.1065 129.021C-35.1959 144.932 -18.016 127.747 -2.10542 143.657C13.8052 159.568 -3.37749 176.75 12.5303 192.658C28.438 208.566 45.6236 191.386 61.5342 207.297C77.4448 223.207 60.2621 240.39 76.1727 256.301C92.0834 272.211 109.266 255.029 125.177 270.939" stroke="white" stroke-opacity="0.08" stroke-width="2" stroke-miterlimit="10"/>
<path d="M-52.0986 -60.9029C-36.1908 -44.9952 -53.3735 -27.8125 -37.4629 -11.9018C-21.5523 4.00877 -4.36957 -13.1739 11.5382 2.73383C27.4459 18.6416 10.2661 35.8271 26.1767 51.7378C42.0873 67.6484 59.2672 50.4628 75.1778 66.3734C91.0884 82.2841 73.9057 99.4667 89.8135 115.374C105.721 131.282 122.907 114.102 138.817 130.013C154.728 145.924 137.545 163.106 153.456 179.017C169.367 194.928 186.549 177.745 202.46 193.656" stroke="white" stroke-opacity="0.08" stroke-width="2" stroke-miterlimit="10"/>
<path d="M-155.143 42.1425C-139.236 58.0503 -156.418 75.2329 -140.508 91.1436C-124.597 107.054 -107.414 89.8715 -91.5067 105.779C-75.599 121.687 -92.7788 138.873 -76.8682 154.783C-60.9576 170.694 -43.7778 153.508 -27.8671 169.419C-11.9565 185.329 -29.1392 202.512 -13.2315 218.42C2.67629 234.328 19.8619 217.148 35.7725 233.058C51.6831 248.969 34.5004 266.152 50.411 282.062C66.3216 297.973 83.5043 280.79 99.415 296.701" stroke="white" stroke-opacity="0.08" stroke-width="2" stroke-miterlimit="10"/>
<path d="M-77.8583 -35.1417C-61.9506 -19.2339 -79.1333 -2.05124 -63.2226 13.8594C-47.312 29.77 -30.1293 12.5873 -14.2216 28.4951C1.68616 44.4028 -15.4937 61.5884 0.41696 77.499C16.3276 93.4096 33.5074 76.224 49.418 92.1347C65.3286 108.045 48.1459 125.228 64.0537 141.136C79.9614 157.043 97.147 139.864 113.058 155.774C128.968 171.685 111.786 188.868 127.696 204.778C143.607 220.689 160.789 203.506 176.7 219.417" stroke="white" stroke-opacity="0.08" stroke-width="2" stroke-miterlimit="10"/>
<path d="M-206.665 93.665C-190.757 109.573 -207.94 126.755 -192.029 142.666C-176.119 158.577 -158.936 141.394 -143.028 157.302C-127.12 173.209 -144.3 190.395 -128.39 206.306C-112.479 222.216 -95.2992 205.031 -79.3886 220.941C-63.478 236.852 -80.6607 254.035 -64.7529 269.942C-48.8452 285.85 -31.6596 268.67 -15.749 284.581C0.161609 300.492 -17.0211 317.674 -1.11046 333.585C14.8002 349.495 31.9829 332.313 47.8935 348.223" stroke="white" stroke-opacity="0.08" stroke-width="2" stroke-miterlimit="10"/>
<path d="M-103.62 -9.38045C-87.7123 6.5273 -104.895 23.71 -88.9844 39.6206C-73.0737 55.5312 -55.8911 38.3485 -39.9833 54.2563C-24.0756 70.164 -41.2554 87.3496 -25.3448 103.26C-9.43414 119.171 7.74568 101.985 23.6563 117.896C39.5669 133.807 22.3842 150.989 38.292 166.897C54.1997 182.805 71.3853 165.625 87.2959 181.536C103.207 197.446 86.0238 214.629 101.934 230.539C117.845 246.45 135.028 229.267 150.938 245.178" stroke="white" stroke-opacity="0.08" stroke-width="2" stroke-miterlimit="10"/>
<path d="M-26.3368 -86.6641C-10.4291 -70.7564 -27.6118 -53.5737 -11.7012 -37.6631C4.20946 -21.7525 21.3921 -38.9352 37.2999 -23.0274C53.2076 -7.11965 36.0278 10.0659 51.9384 25.9765C67.8491 41.8871 85.0289 24.7016 100.94 40.6122C116.85 56.5228 99.6674 73.7055 115.575 89.6133C131.483 105.521 148.668 88.3412 164.579 104.252C180.49 120.162 163.307 137.345 179.218 153.256C195.128 169.166 212.311 151.984 228.222 167.894" stroke="white" stroke-opacity="0.08" stroke-width="2" stroke-miterlimit="10"/>
<path d="M-180.905 67.9037C-164.997 83.8115 -182.18 100.994 -166.27 116.905C-150.359 132.815 -133.176 115.633 -117.268 131.54C-101.361 147.448 -118.541 164.634 -102.63 180.544C-86.7193 196.455 -69.5395 179.269 -53.6289 195.18C-37.7182 211.091 -54.9009 228.273 -38.9932 244.181C-23.0854 260.089 -5.89986 242.909 10.0108 258.82C25.9214 274.73 8.73868 291.913 24.6493 307.824C40.5599 323.734 57.7426 306.552 73.6532 322.462" stroke="white" stroke-opacity="0.08" stroke-width="2" stroke-miterlimit="10"/>
<path d="M-232.427 119.426C-216.519 135.334 -233.702 152.517 -217.791 168.427C-201.88 184.338 -184.698 167.155 -168.79 183.063C-152.882 198.971 -170.062 216.156 -154.151 232.067C-138.241 247.977 -121.061 230.792 -105.15 246.703C-89.2397 262.613 -106.422 279.796 -90.5147 295.704C-74.6069 311.611 -57.4213 294.432 -41.5107 310.342C-25.6001 326.253 -42.7828 343.435 -26.8722 359.346C-10.9616 375.257 6.22113 358.074 22.1318 373.985" stroke="white" stroke-opacity="0.08" stroke-width="2" stroke-miterlimit="10"/>
<path d="M-129.382 16.3808C-113.474 32.2885 -130.657 49.4712 -114.746 65.3818C-98.8355 81.2925 -81.6528 64.1098 -65.745 80.0175C-49.8373 95.9253 -67.0171 113.111 -51.1065 129.021C-35.1959 144.932 -18.016 127.747 -2.10542 143.657C13.8052 159.568 -3.37749 176.75 12.5303 192.658C28.438 208.566 45.6236 191.386 61.5342 207.297C77.4448 223.207 60.2621 240.39 76.1727 256.301C92.0834 272.211 109.266 255.029 125.177 270.939" stroke="white" stroke-opacity="0.08" stroke-width="2" stroke-miterlimit="10"/>
<path d="M-52.0986 -60.9029C-36.1908 -44.9952 -53.3735 -27.8125 -37.4629 -11.9018C-21.5523 4.00877 -4.36957 -13.1739 11.5382 2.73383C27.4459 18.6416 10.2661 35.8271 26.1767 51.7378C42.0873 67.6484 59.2672 50.4628 75.1778 66.3734C91.0884 82.2841 73.9057 99.4667 89.8135 115.374C105.721 131.282 122.907 114.102 138.817 130.013C154.728 145.924 137.545 163.106 153.456 179.017C169.367 194.928 186.549 177.745 202.46 193.656" stroke="white" stroke-opacity="0.08" stroke-width="2" stroke-miterlimit="10"/>
<path d="M-155.143 42.1425C-139.236 58.0503 -156.418 75.2329 -140.508 91.1436C-124.597 107.054 -107.414 89.8715 -91.5067 105.779C-75.599 121.687 -92.7788 138.873 -76.8682 154.783C-60.9576 170.694 -43.7778 153.508 -27.8671 169.419C-11.9565 185.329 -29.1392 202.512 -13.2315 218.42C2.67629 234.328 19.8619 217.148 35.7725 233.058C51.6831 248.969 34.5004 266.152 50.411 282.062C66.3216 297.973 83.5043 280.79 99.415 296.701" stroke="white" stroke-opacity="0.08" stroke-width="2" stroke-miterlimit="10"/>
<path d="M-77.8583 -35.1417C-61.9506 -19.2339 -79.1333 -2.05124 -63.2226 13.8594C-47.312 29.77 -30.1293 12.5873 -14.2216 28.4951C1.68616 44.4028 -15.4937 61.5884 0.41696 77.499C16.3276 93.4096 33.5074 76.224 49.418 92.1347C65.3286 108.045 48.1459 125.228 64.0537 141.136C79.9614 157.043 97.147 139.864 113.058 155.774C128.968 171.685 111.786 188.868 127.696 204.778C143.607 220.689 160.789 203.506 176.7 219.417" stroke="white" stroke-opacity="0.08" stroke-width="2" stroke-miterlimit="10"/>
<path d="M-206.665 93.665C-190.757 109.573 -207.94 126.755 -192.029 142.666C-176.119 158.577 -158.936 141.394 -143.028 157.302C-127.12 173.209 -144.3 190.395 -128.39 206.306C-112.479 222.216 -95.2992 205.031 -79.3886 220.941C-63.478 236.852 -80.6607 254.035 -64.7529 269.942C-48.8452 285.85 -31.6596 268.67 -15.749 284.581C0.161609 300.492 -17.0211 317.674 -1.11046 333.585C14.8002 349.495 31.9829 332.313 47.8935 348.223" stroke="white" stroke-opacity="0.08" stroke-width="2" stroke-miterlimit="10"/>
<path d="M-103.62 -9.38045C-87.7123 6.5273 -104.895 23.71 -88.9844 39.6206C-73.0737 55.5312 -55.8911 38.3485 -39.9833 54.2563C-24.0756 70.164 -41.2554 87.3496 -25.3448 103.26C-9.43414 119.171 7.74568 101.985 23.6563 117.896C39.5669 133.807 22.3842 150.989 38.292 166.897C54.1997 182.805 71.3853 165.625 87.2959 181.536C103.207 197.446 86.0238 214.629 101.934 230.539C117.845 246.45 135.028 229.267 150.938 245.178" stroke="white" stroke-opacity="0.08" stroke-width="2" stroke-miterlimit="10"/>
<path d="M-26.3368 -86.6641C-10.4291 -70.7564 -27.6118 -53.5737 -11.7012 -37.6631C4.20946 -21.7525 21.3921 -38.9352 37.2999 -23.0274C53.2076 -7.11965 36.0278 10.0659 51.9384 25.9765C67.8491 41.8871 85.0289 24.7016 100.94 40.6122C116.85 56.5228 99.6674 73.7055 115.575 89.6133C131.483 105.521 148.668 88.3412 164.579 104.252C180.49 120.162 163.307 137.345 179.218 153.256C195.128 169.166 212.311 151.984 228.222 167.894" stroke="white" stroke-opacity="0.08" stroke-width="2" stroke-miterlimit="10"/>
<path d="M-172.325 59.3251C-156.417 75.2329 -173.6 92.4156 -157.689 108.326C-141.779 124.237 -124.596 107.054 -108.688 122.962C-92.7806 138.87 -109.96 156.055 -94.0498 171.966C-78.1392 187.876 -60.9594 170.691 -45.0488 186.601C-29.1382 202.512 -46.3209 219.695 -30.4131 235.603C-14.5054 251.51 2.68021 234.33 18.5908 250.241C34.5015 266.152 17.3188 283.334 33.2294 299.245C49.14 315.156 66.3227 297.973 82.2333 313.884" stroke="white" stroke-opacity="0.08" stroke-width="2" stroke-miterlimit="10"/>
<path d="M-223.849 110.848C-207.941 126.755 -225.124 143.938 -209.213 159.849C-193.302 175.759 -176.12 158.577 -160.212 174.484C-144.304 190.392 -161.484 207.578 -145.573 223.488C-129.663 239.399 -112.483 222.213 -96.5722 238.124C-80.6616 254.035 -97.8443 271.217 -81.9365 287.125C-66.0288 303.033 -48.8432 285.853 -32.9326 301.764C-17.022 317.674 -34.2047 334.857 -18.2941 350.767C-2.38344 366.678 14.7993 349.495 30.7099 365.406" stroke="white" stroke-opacity="0.08" stroke-width="2" stroke-miterlimit="10"/>
<path d="M-120.804 7.80217C-104.896 23.7099 -122.079 40.8926 -106.168 56.8032C-90.2573 72.7139 -73.0746 55.5312 -57.1669 71.4389C-41.2591 87.3467 -58.439 104.532 -42.5284 120.443C-26.6177 136.353 -9.43791 119.168 6.47271 135.079C22.3833 150.989 5.20063 168.172 21.1084 184.08C37.0161 199.987 54.2017 182.808 70.1123 198.718C86.0229 214.629 68.8402 231.811 84.7509 247.722C100.661 263.633 117.844 246.45 133.755 262.361" stroke="white" stroke-opacity="0.08" stroke-width="2" stroke-miterlimit="10"/>
<path d="M-43.5185 -69.4815C-27.6107 -53.5738 -44.7934 -36.3911 -28.8828 -20.4805C-12.9722 -4.56984 4.21051 -21.7525 20.1183 -5.84479C36.026 10.063 18.8462 27.2485 34.7568 43.1591C50.6674 59.0698 67.8472 41.8842 83.7579 57.7948C99.6685 73.7054 82.4858 90.8881 98.3935 106.796C114.301 122.704 131.487 105.524 147.397 121.434C163.308 137.345 146.125 154.528 162.036 170.438C177.947 186.349 195.129 169.166 211.04 185.077" stroke="white" stroke-opacity="0.08" stroke-width="2" stroke-miterlimit="10"/>
<path d="M-249.608 136.609C-233.701 152.517 -250.883 169.699 -234.973 185.61C-219.062 201.52 -201.879 184.338 -185.972 200.246C-170.064 216.153 -187.244 233.339 -171.333 249.249C-155.422 265.16 -138.243 247.975 -122.332 263.885C-106.421 279.796 -123.604 296.978 -107.696 312.886C-91.7886 328.794 -74.603 311.614 -58.6924 327.525C-42.7818 343.435 -59.9644 360.618 -44.0538 376.529C-28.1432 392.439 -10.9605 375.257 4.95011 391.167" stroke="white" stroke-opacity="0.08" stroke-width="2" stroke-miterlimit="10"/>
<path d="M-146.565 33.5639C-130.658 49.4716 -147.84 66.6543 -131.93 82.5649C-116.019 98.4756 -98.8364 81.2929 -82.9286 97.2006C-67.0209 113.108 -84.2007 130.294 -68.2901 146.205C-52.3795 162.115 -35.1996 144.93 -19.289 160.84C-3.37839 176.751 -20.5611 193.934 -4.65334 209.841C11.2544 225.749 28.44 208.569 44.3506 224.48C60.2612 240.39 43.0785 257.573 58.9891 273.484C74.8998 289.394 92.0825 272.212 107.993 288.122" stroke="white" stroke-opacity="0.08" stroke-width="2" stroke-miterlimit="10"/>
<path d="M-69.2802 -43.7203C-53.3724 -27.8125 -70.5551 -10.6298 -54.6445 5.28077C-38.7339 21.1914 -21.5512 4.00869 -5.64346 19.9164C10.2643 35.8242 -6.91553 53.0098 8.99509 68.9204C24.9057 84.831 42.0855 67.6454 57.9961 83.5561C73.9068 99.4667 56.7241 116.649 72.6318 132.557C88.5396 148.465 105.725 131.285 121.636 147.196C137.546 163.106 120.364 180.289 136.274 196.2C152.185 212.11 169.368 194.928 185.278 210.838" stroke="white" stroke-opacity="0.08" stroke-width="2" stroke-miterlimit="10"/>
<path d="M-198.087 85.0863C-182.179 100.994 -199.362 118.177 -183.451 134.087C-167.541 149.998 -150.358 132.815 -134.45 148.723C-118.542 164.631 -135.722 181.816 -119.812 197.727C-103.901 213.638 -86.7211 196.452 -70.8105 212.363C-54.8999 228.273 -72.0826 245.456 -56.1748 261.364C-40.2671 277.272 -23.0815 260.092 -7.17089 276.002C8.73973 291.913 -8.44296 309.096 7.46766 325.006C23.3783 340.917 40.561 323.734 56.4716 339.645" stroke="white" stroke-opacity="0.08" stroke-width="2" stroke-miterlimit="10"/>
<path d="M-95.0419 -17.9591C-79.1342 -2.05131 -96.3169 15.1314 -80.4062 31.042C-64.4956 46.9526 -47.3129 29.7699 -31.4052 45.6777C-15.4974 61.5854 -32.6773 78.771 -16.7666 94.6816C-0.856014 110.592 16.3238 93.4067 32.2344 109.317C48.145 125.228 30.9624 142.411 46.8701 158.318C62.7779 174.226 79.9634 157.046 95.874 172.957C111.785 188.868 94.602 206.05 110.513 221.961C126.423 237.871 143.606 220.689 159.517 236.599" stroke="white" stroke-opacity="0.08" stroke-width="2" stroke-miterlimit="10"/>
<path d="M-17.7587 -95.2428C-1.85096 -79.335 -19.0337 -62.1523 -3.12304 -46.2417C12.7876 -30.3311 29.9703 -47.5138 45.878 -31.606C61.7858 -15.6983 44.606 1.4873 60.5166 17.3979C76.4272 33.3085 93.607 16.123 109.518 32.0336C125.428 47.9442 108.246 65.1269 124.153 81.0347C140.061 96.9424 157.247 79.7626 173.157 95.6732C189.068 111.584 171.885 128.767 187.796 144.677C203.706 160.588 220.889 143.405 236.8 159.316" stroke="white" stroke-opacity="0.08" stroke-width="2" stroke-miterlimit="10"/>
<path d="M237.945 69H230.281V44.0625H229.953C227.844 45.4453 225.031 47.25 222.734 48.8438V42.0234C225.195 40.2891 227.867 38.5781 230.375 37.0078H237.945V69ZM250.344 47.0156H243.102V46.5703C243.102 40.8984 247.836 36.4453 254.844 36.4453C261.617 36.4453 266.117 40.1719 266.117 45.5156C266.117 49.1484 264.406 51.6094 260.398 55.7578L254.047 62.6016V62.8594H266.68V69H243.617V64.2188L255.008 52.3828C257.258 50.0859 258.5 48.375 258.5 46.2891C258.5 43.9922 256.812 42.4688 254.469 42.4688C252.008 42.4688 250.344 44.2969 250.344 46.5234V47.0156ZM270.008 54V51.9609C270.008 42.7266 274.648 36.4453 282.734 36.4453C290.891 36.4453 295.297 42.6562 295.297 51.9609V54C295.297 62.6484 291.102 69.5859 282.57 69.5859C274.438 69.5859 270.008 63.2344 270.008 54ZM277.766 51.9844V53.9766C277.766 60.3516 279.734 63.3984 282.664 63.3984C285.57 63.3984 287.562 60.3047 287.562 53.9766V51.9844C287.562 45.6562 285.57 42.6328 282.664 42.6328C279.734 42.6328 277.766 45.6094 277.766 51.9844ZM298.461 54V51.9609C298.461 42.7266 303.102 36.4453 311.188 36.4453C319.344 36.4453 323.75 42.6562 323.75 51.9609V54C323.75 62.6484 319.555 69.5859 311.023 69.5859C302.891 69.5859 298.461 63.2344 298.461 54ZM306.219 51.9844V53.9766C306.219 60.3516 308.188 63.3984 311.117 63.3984C314.023 63.3984 316.016 60.3047 316.016 53.9766V51.9844C316.016 45.6562 314.023 42.6328 311.117 42.6328C308.188 42.6328 306.219 45.6094 306.219 51.9844ZM326.914 54V51.9609C326.914 42.7266 331.555 36.4453 339.641 36.4453C347.797 36.4453 352.203 42.6562 352.203 51.9609V54C352.203 62.6484 348.008 69.5859 339.477 69.5859C331.344 69.5859 326.914 63.2344 326.914 54ZM334.672 51.9844V53.9766C334.672 60.3516 336.641 63.3984 339.57 63.3984C342.477 63.3984 344.469 60.3047 344.469 53.9766V51.9844C344.469 45.6562 342.477 42.6328 339.57 42.6328C336.641 42.6328 334.672 45.6094 334.672 51.9844ZM371.586 58.9219V68.5078H365.023V58.9219H356V52.5469H365.023V43.1953H371.586V52.5469H380.609V58.9219H371.586Z" fill="white"/>
<path d="M241.734 89.786V88.544H250.734V89.786H246.936V101H245.568V89.786H241.734ZM256.756 99.884L257.278 99.83L257.314 100.892C255.946 101.084 254.776 101.18 253.804 101.18C252.508 101.18 251.59 100.808 251.05 100.064C250.51 99.308 250.24 98.138 250.24 96.554C250.24 93.398 251.494 91.82 254.002 91.82C255.214 91.82 256.12 92.162 256.72 92.846C257.32 93.518 257.62 94.58 257.62 96.032L257.548 97.058H251.608C251.608 98.054 251.788 98.792 252.148 99.272C252.508 99.752 253.132 99.992 254.02 99.992C254.92 99.992 255.832 99.956 256.756 99.884ZM256.27 95.978C256.27 94.874 256.09 94.094 255.73 93.638C255.382 93.182 254.806 92.954 254.002 92.954C253.21 92.954 252.61 93.194 252.202 93.674C251.806 94.154 251.602 94.922 251.59 95.978H256.27ZM262.55 93.026C261.242 93.026 260.588 93.482 260.588 94.394C260.588 94.814 260.738 95.114 261.038 95.294C261.338 95.462 262.022 95.642 263.09 95.834C264.158 96.014 264.914 96.272 265.358 96.608C265.802 96.944 266.024 97.574 266.024 98.498C266.024 99.422 265.724 100.1 265.124 100.532C264.536 100.964 263.672 101.18 262.532 101.18C261.788 101.18 260.912 101.096 259.904 100.928L259.364 100.838L259.436 99.668C260.804 99.872 261.836 99.974 262.532 99.974C263.228 99.974 263.756 99.866 264.116 99.65C264.488 99.422 264.674 99.05 264.674 98.534C264.674 98.006 264.518 97.652 264.206 97.472C263.894 97.28 263.21 97.1 262.154 96.932C261.098 96.764 260.348 96.518 259.904 96.194C259.46 95.87 259.238 95.27 259.238 94.394C259.238 93.518 259.544 92.87 260.156 92.45C260.78 92.03 261.554 91.82 262.478 91.82C263.21 91.82 264.128 91.904 265.232 92.072L265.736 92.162L265.7 93.314C264.368 93.122 263.318 93.026 262.55 93.026ZM272.753 93.17H269.891V97.472C269.891 98.504 269.963 99.182 270.107 99.506C270.263 99.83 270.623 99.992 271.187 99.992L272.789 99.884L272.879 101C272.075 101.132 271.463 101.198 271.043 101.198C270.107 101.198 269.459 100.97 269.099 100.514C268.739 100.058 268.559 99.188 268.559 97.904V93.17H267.281V92H268.559V89.246H269.891V92H272.753V93.17ZM287.1 96.806H283.932V101H282.546V88.544H287.1C288.456 88.544 289.458 88.874 290.106 89.534C290.754 90.194 291.078 91.202 291.078 92.558C291.078 95.39 289.752 96.806 287.1 96.806ZM283.932 95.582H287.082C288.798 95.582 289.656 94.574 289.656 92.558C289.656 91.598 289.452 90.896 289.044 90.452C288.636 89.996 287.982 89.768 287.082 89.768H283.932V95.582ZM299.031 99.884L299.553 99.83L299.589 100.892C298.221 101.084 297.051 101.18 296.079 101.18C294.783 101.18 293.865 100.808 293.325 100.064C292.785 99.308 292.515 98.138 292.515 96.554C292.515 93.398 293.769 91.82 296.277 91.82C297.489 91.82 298.395 92.162 298.995 92.846C299.595 93.518 299.895 94.58 299.895 96.032L299.823 97.058H293.883C293.883 98.054 294.063 98.792 294.423 99.272C294.783 99.752 295.407 99.992 296.295 99.992C297.195 99.992 298.107 99.956 299.031 99.884ZM298.545 95.978C298.545 94.874 298.365 94.094 298.005 93.638C297.657 93.182 297.081 92.954 296.277 92.954C295.485 92.954 294.885 93.194 294.477 93.674C294.081 94.154 293.877 94.922 293.865 95.978H298.545ZM301.999 101V92H303.331V93.224C304.375 92.504 305.473 92.03 306.625 91.802V93.17C306.121 93.266 305.593 93.416 305.041 93.62C304.501 93.824 304.087 94.004 303.799 94.16L303.349 94.394V101H301.999ZM309.95 93.17V101H308.6V93.17H307.466V92H308.6V91.19C308.6 89.918 308.78 89.054 309.14 88.598C309.5 88.13 310.13 87.896 311.03 87.896L312.848 88.022L312.83 89.138C312.158 89.114 311.6 89.102 311.156 89.102C310.724 89.102 310.412 89.246 310.22 89.534C310.04 89.822 309.95 90.38 309.95 91.208V92H312.56V93.17H309.95ZM313.627 96.482C313.627 94.838 313.921 93.65 314.509 92.918C315.097 92.186 316.087 91.82 317.479 91.82C318.883 91.82 319.873 92.186 320.449 92.918C321.037 93.65 321.331 94.838 321.331 96.482C321.331 98.126 321.055 99.32 320.503 100.064C319.951 100.808 318.943 101.18 317.479 101.18C316.015 101.18 315.007 100.808 314.455 100.064C313.903 99.32 313.627 98.126 313.627 96.482ZM315.013 96.464C315.013 97.772 315.169 98.69 315.481 99.218C315.805 99.746 316.471 100.01 317.479 100.01C318.499 100.01 319.165 99.752 319.477 99.236C319.789 98.708 319.945 97.784 319.945 96.464C319.945 95.144 319.771 94.238 319.423 93.746C319.075 93.242 318.427 92.99 317.479 92.99C316.543 92.99 315.895 93.242 315.535 93.746C315.187 94.238 315.013 95.144 315.013 96.464ZM323.532 101V92H324.864V93.224C325.908 92.504 327.006 92.03 328.158 91.802V93.17C327.654 93.266 327.126 93.416 326.574 93.62C326.034 93.824 325.62 94.004 325.332 94.16L324.882 94.394V101H323.532ZM331.105 101H329.755V92H331.087V92.63C331.987 92.09 332.863 91.82 333.715 91.82C334.831 91.82 335.611 92.126 336.055 92.738C336.451 92.498 336.961 92.288 337.585 92.108C338.221 91.916 338.779 91.82 339.259 91.82C340.459 91.82 341.263 92.144 341.671 92.792C342.091 93.428 342.301 94.58 342.301 96.248V101H340.951V96.284C340.951 95.036 340.831 94.184 340.591 93.728C340.351 93.26 339.841 93.026 339.061 93.026C338.665 93.026 338.257 93.086 337.837 93.206C337.417 93.314 337.093 93.422 336.865 93.53L336.523 93.692C336.679 94.088 336.757 94.964 336.757 96.32V101H335.407V96.356C335.407 95.06 335.287 94.184 335.047 93.728C334.819 93.26 334.309 93.026 333.517 93.026C333.133 93.026 332.737 93.086 332.329 93.206C331.933 93.314 331.627 93.422 331.411 93.53L331.105 93.692V101ZM350.922 99.884L351.444 99.83L351.48 100.892C350.112 101.084 348.942 101.18 347.97 101.18C346.674 101.18 345.756 100.808 345.216 100.064C344.676 99.308 344.406 98.138 344.406 96.554C344.406 93.398 345.66 91.82 348.168 91.82C349.38 91.82 350.286 92.162 350.886 92.846C351.486 93.518 351.786 94.58 351.786 96.032L351.714 97.058H345.774C345.774 98.054 345.954 98.792 346.314 99.272C346.674 99.752 347.298 99.992 348.186 99.992C349.086 99.992 349.998 99.956 350.922 99.884ZM350.436 95.978C350.436 94.874 350.256 94.094 349.896 93.638C349.548 93.182 348.972 92.954 348.168 92.954C347.376 92.954 346.776 93.194 346.368 93.674C345.972 94.154 345.768 94.922 345.756 95.978H350.436ZM360.802 88.076V101H359.47V100.388C358.546 100.916 357.634 101.18 356.734 101.18C356.254 101.18 355.834 101.12 355.474 101C355.114 100.88 354.778 100.664 354.466 100.352C353.818 99.704 353.494 98.51 353.494 96.77C353.494 95.018 353.782 93.758 354.358 92.99C354.946 92.21 355.912 91.82 357.256 91.82C357.952 91.82 358.69 91.898 359.47 92.054V88.076H360.802ZM355.51 99.38C355.702 99.608 355.906 99.764 356.122 99.848C356.338 99.932 356.614 99.974 356.95 99.974C357.298 99.974 357.682 99.92 358.102 99.812C358.534 99.692 358.87 99.578 359.11 99.47L359.47 99.308V93.206C358.702 93.062 357.988 92.99 357.328 92.99C356.416 92.99 355.78 93.284 355.42 93.872C355.06 94.448 354.88 95.348 354.88 96.572C354.88 97.964 355.09 98.9 355.51 99.38Z" fill="white" fill-opacity="0.72"/>
<path d="M503 21V117" stroke="white" stroke-opacity="0.24" stroke-linecap="round"/>
<path d="M661.945 68.5H654.281V43.5625H653.953C651.844 44.9453 649.031 46.75 646.734 48.3438V41.5234C649.195 39.7891 651.867 38.0781 654.375 36.5078H661.945V68.5ZM674.344 46.5156H667.102V46.0703C667.102 40.3984 671.836 35.9453 678.844 35.9453C685.617 35.9453 690.117 39.6719 690.117 45.0156C690.117 48.6484 688.406 51.1094 684.398 55.2578L678.047 62.1016V62.3594H690.68V68.5H667.617V63.7188L679.008 51.8828C681.258 49.5859 682.5 47.875 682.5 45.7891C682.5 43.4922 680.812 41.9688 678.469 41.9688C676.008 41.9688 674.344 43.7969 674.344 46.0234V46.5156ZM709.664 58.4219V68.0078H703.102V58.4219H694.078V52.0469H703.102V42.6953H709.664V52.0469H718.688V58.4219H709.664Z" fill="white"/>
<path d="M628.544 100.5H627.158V95.262L623.18 88.044H624.746L627.842 93.876L630.938 88.044H632.504L628.544 95.262V100.5ZM638.836 99.384L639.358 99.33L639.394 100.392C638.026 100.584 636.856 100.68 635.884 100.68C634.588 100.68 633.67 100.308 633.13 99.564C632.59 98.808 632.32 97.638 632.32 96.054C632.32 92.898 633.574 91.32 636.082 91.32C637.294 91.32 638.2 91.662 638.8 92.346C639.4 93.018 639.7 94.08 639.7 95.532L639.628 96.558H633.688C633.688 97.554 633.868 98.292 634.228 98.772C634.588 99.252 635.212 99.492 636.1 99.492C637 99.492 637.912 99.456 638.836 99.384ZM638.35 95.478C638.35 94.374 638.17 93.594 637.81 93.138C637.462 92.682 636.886 92.454 636.082 92.454C635.29 92.454 634.69 92.694 634.282 93.174C633.886 93.654 633.682 94.422 633.67 95.478H638.35ZM648.158 94.218V98.826C648.194 99.27 648.542 99.534 649.202 99.618L649.148 100.68C648.2 100.68 647.486 100.44 647.006 99.96C645.926 100.44 644.846 100.68 643.766 100.68C642.938 100.68 642.308 100.446 641.876 99.978C641.444 99.51 641.228 98.838 641.228 97.962C641.228 97.086 641.45 96.444 641.894 96.036C642.338 95.616 643.034 95.358 643.982 95.262L646.808 94.992V94.218C646.808 93.606 646.676 93.168 646.412 92.904C646.148 92.64 645.788 92.508 645.332 92.508C644.372 92.508 643.376 92.568 642.344 92.688L641.786 92.742L641.732 91.716C643.052 91.452 644.222 91.32 645.242 91.32C646.262 91.32 647 91.554 647.456 92.022C647.924 92.49 648.158 93.222 648.158 94.218ZM642.614 97.89C642.614 98.994 643.07 99.546 643.982 99.546C644.798 99.546 645.602 99.408 646.394 99.132L646.808 98.988V96.018L644.144 96.27C643.604 96.318 643.214 96.474 642.974 96.738C642.734 97.002 642.614 97.386 642.614 97.89ZM650.821 100.5V91.5H652.153V92.724C653.197 92.004 654.295 91.53 655.447 91.302V92.67C654.943 92.766 654.415 92.916 653.863 93.12C653.323 93.324 652.909 93.504 652.621 93.66L652.171 93.894V100.5H650.821ZM661.233 100.5V88.044H668.811V89.268H662.619V93.57H667.731V94.776H662.619V99.276H668.811V100.5H661.233ZM670.048 91.5H671.524L673.72 95.028L675.916 91.5H677.392L674.53 95.964L677.374 100.5H675.898L673.72 96.99L671.524 100.5H670.048L672.874 96L670.048 91.5ZM679.087 104.496V91.5H680.419V92.148C681.331 91.596 682.231 91.32 683.119 91.32C684.259 91.32 685.087 91.686 685.603 92.418C686.119 93.138 686.377 94.332 686.377 96C686.377 97.668 686.071 98.868 685.459 99.6C684.859 100.32 683.857 100.68 682.453 100.68C681.721 100.68 681.049 100.614 680.437 100.482V104.496H679.087ZM682.921 92.526C682.561 92.526 682.171 92.586 681.751 92.706C681.343 92.826 681.019 92.946 680.779 93.066L680.437 93.246V99.312C681.289 99.444 681.937 99.51 682.381 99.51C683.353 99.51 684.031 99.234 684.415 98.682C684.811 98.13 685.009 97.23 685.009 95.982C685.009 94.734 684.829 93.846 684.469 93.318C684.121 92.79 683.605 92.526 682.921 92.526ZM694.699 99.384L695.221 99.33L695.257 100.392C693.889 100.584 692.719 100.68 691.747 100.68C690.451 100.68 689.533 100.308 688.993 99.564C688.453 98.808 688.183 97.638 688.183 96.054C688.183 92.898 689.437 91.32 691.945 91.32C693.157 91.32 694.063 91.662 694.663 92.346C695.263 93.018 695.563 94.08 695.563 95.532L695.491 96.558H689.551C689.551 97.554 689.731 98.292 690.091 98.772C690.451 99.252 691.075 99.492 691.963 99.492C692.863 99.492 693.775 99.456 694.699 99.384ZM694.213 95.478C694.213 94.374 694.033 93.594 693.673 93.138C693.325 92.682 692.749 92.454 691.945 92.454C691.153 92.454 690.553 92.694 690.145 93.174C689.749 93.654 689.545 94.422 689.533 95.478H694.213ZM697.667 100.5V91.5H698.999V92.724C700.043 92.004 701.141 91.53 702.293 91.302V92.67C701.789 92.766 701.261 92.916 700.709 93.12C700.169 93.324 699.755 93.504 699.467 93.66L699.017 93.894V100.5H697.667ZM703.89 100.5V91.5H705.24V100.5H703.89ZM703.89 89.466V87.9H705.24V89.466H703.89ZM713.947 99.384L714.469 99.33L714.505 100.392C713.137 100.584 711.967 100.68 710.995 100.68C709.699 100.68 708.781 100.308 708.241 99.564C707.701 98.808 707.431 97.638 707.431 96.054C707.431 92.898 708.685 91.32 711.193 91.32C712.405 91.32 713.311 91.662 713.911 92.346C714.511 93.018 714.811 94.08 714.811 95.532L714.739 96.558H708.799C708.799 97.554 708.979 98.292 709.339 98.772C709.699 99.252 710.323 99.492 711.211 99.492C712.111 99.492 713.023 99.456 713.947 99.384ZM713.461 95.478C713.461 94.374 713.281 93.594 712.921 93.138C712.573 92.682 711.997 92.454 711.193 92.454C710.401 92.454 709.801 92.694 709.393 93.174C708.997 93.654 708.793 94.422 708.781 95.478H713.461ZM718.265 100.5H716.915V91.5H718.247V92.13C719.219 91.59 720.149 91.32 721.037 91.32C722.237 91.32 723.041 91.644 723.449 92.292C723.869 92.94 724.079 94.092 724.079 95.748V100.5H722.747V95.784C722.747 94.536 722.621 93.684 722.369 93.228C722.129 92.76 721.607 92.526 720.803 92.526C720.419 92.526 720.011 92.586 719.579 92.706C719.159 92.814 718.835 92.922 718.607 93.03L718.265 93.192V100.5ZM729.949 91.32C730.345 91.32 731.017 91.392 731.965 91.536L732.397 91.59L732.343 92.688C731.383 92.58 730.675 92.526 730.219 92.526C729.199 92.526 728.503 92.772 728.131 93.264C727.771 93.744 727.591 94.644 727.591 95.964C727.591 97.272 727.759 98.184 728.095 98.7C728.443 99.216 729.157 99.474 730.237 99.474L732.361 99.312L732.415 100.428C731.299 100.596 730.465 100.68 729.913 100.68C728.509 100.68 727.537 100.32 726.997 99.6C726.469 98.88 726.205 97.668 726.205 95.964C726.205 94.248 726.493 93.048 727.069 92.364C727.645 91.668 728.605 91.32 729.949 91.32ZM740.437 99.384L740.959 99.33L740.995 100.392C739.627 100.584 738.457 100.68 737.485 100.68C736.189 100.68 735.271 100.308 734.731 99.564C734.191 98.808 733.921 97.638 733.921 96.054C733.921 92.898 735.175 91.32 737.683 91.32C738.895 91.32 739.801 91.662 740.401 92.346C741.001 93.018 741.301 94.08 741.301 95.532L741.229 96.558H735.289C735.289 97.554 735.469 98.292 735.829 98.772C736.189 99.252 736.813 99.492 737.701 99.492C738.601 99.492 739.513 99.456 740.437 99.384ZM739.951 95.478C739.951 94.374 739.771 93.594 739.411 93.138C739.063 92.682 738.487 92.454 737.683 92.454C736.891 92.454 736.291 92.694 735.883 93.174C735.487 93.654 735.283 94.422 735.271 95.478H739.951Z" fill="white" fill-opacity="0.72"/>
<path d="M863 21V117" stroke="white" stroke-opacity="0.24" stroke-linecap="round"/>
<path d="M1008.73 45.2812H1001.63C1001.4 43.7578 999.828 42.3516 997.531 42.3516C993.453 42.3516 991.695 47.0859 991.859 52.4531H992.211C993.031 50.4844 995.141 47.9062 999.477 47.9062C1004.7 47.9062 1009.46 51.5859 1009.46 58.2891C1009.46 65.5312 1004.12 69.5859 997.484 69.5859C993.5 69.5859 990.266 68.1328 988.062 65.3672C985.859 62.625 984.641 58.5938 984.641 53.4375C984.641 42.6094 989.586 36.4688 997.695 36.4688C1004.91 36.4688 1008.55 41.2969 1008.73 45.2812ZM992.703 58.5703C992.703 61.7109 994.789 63.6562 997.461 63.6562C1000.09 63.6562 1002.15 61.7812 1002.15 58.5703C1002.15 55.3828 1000.06 53.4609 997.461 53.4609C994.719 53.4609 992.703 55.5 992.703 58.5703ZM1012.32 54V51.9609C1012.32 42.7266 1016.96 36.4453 1025.05 36.4453C1033.2 36.4453 1037.61 42.6562 1037.61 51.9609V54C1037.61 62.6484 1033.41 69.5859 1024.88 69.5859C1016.75 69.5859 1012.32 63.2344 1012.32 54ZM1020.08 51.9844V53.9766C1020.08 60.3516 1022.05 63.3984 1024.98 63.3984C1027.88 63.3984 1029.88 60.3047 1029.88 53.9766V51.9844C1029.88 45.6562 1027.88 42.6328 1024.98 42.6328C1022.05 42.6328 1020.08 45.6094 1020.08 51.9844ZM1040.77 54V51.9609C1040.77 42.7266 1045.41 36.4453 1053.5 36.4453C1061.66 36.4453 1066.06 42.6562 1066.06 51.9609V54C1066.06 62.6484 1061.87 69.5859 1053.34 69.5859C1045.2 69.5859 1040.77 63.2344 1040.77 54ZM1048.53 51.9844V53.9766C1048.53 60.3516 1050.5 63.3984 1053.43 63.3984C1056.34 63.3984 1058.33 60.3047 1058.33 53.9766V51.9844C1058.33 45.6562 1056.34 42.6328 1053.43 42.6328C1050.5 42.6328 1048.53 45.6094 1048.53 51.9844ZM1085.45 58.9219V68.5078H1078.88V58.9219H1069.86V52.5469H1078.88V43.1953H1085.45V52.5469H1094.47V58.9219H1085.45Z" fill="white"/>
<path d="M1011.89 101H1005.03V88.544H1006.42V99.758H1011.89V101ZM1012.93 96.482C1012.93 94.838 1013.22 93.65 1013.81 92.918C1014.4 92.186 1015.39 91.82 1016.78 91.82C1018.18 91.82 1019.17 92.186 1019.75 92.918C1020.34 93.65 1020.63 94.838 1020.63 96.482C1020.63 98.126 1020.35 99.32 1019.8 100.064C1019.25 100.808 1018.24 101.18 1016.78 101.18C1015.31 101.18 1014.31 100.808 1013.75 100.064C1013.2 99.32 1012.93 98.126 1012.93 96.482ZM1014.31 96.464C1014.31 97.772 1014.47 98.69 1014.78 99.218C1015.1 99.746 1015.77 100.01 1016.78 100.01C1017.8 100.01 1018.46 99.752 1018.78 99.236C1019.09 98.708 1019.24 97.784 1019.24 96.464C1019.24 95.144 1019.07 94.238 1018.72 93.746C1018.37 93.242 1017.73 92.99 1016.78 92.99C1015.84 92.99 1015.19 93.242 1014.83 93.746C1014.49 94.238 1014.31 95.144 1014.31 96.464ZM1026.2 91.82C1026.59 91.82 1027.27 91.892 1028.21 92.036L1028.65 92.09L1028.59 93.188C1027.63 93.08 1026.92 93.026 1026.47 93.026C1025.45 93.026 1024.75 93.272 1024.38 93.764C1024.02 94.244 1023.84 95.144 1023.84 96.464C1023.84 97.772 1024.01 98.684 1024.34 99.2C1024.69 99.716 1025.41 99.974 1026.49 99.974L1028.61 99.812L1028.66 100.928C1027.55 101.096 1026.71 101.18 1026.16 101.18C1024.76 101.18 1023.79 100.82 1023.25 100.1C1022.72 99.38 1022.45 98.168 1022.45 96.464C1022.45 94.748 1022.74 93.548 1023.32 92.864C1023.89 92.168 1024.85 91.82 1026.2 91.82ZM1037.03 94.718V99.326C1037.06 99.77 1037.41 100.034 1038.07 100.118L1038.02 101.18C1037.07 101.18 1036.35 100.94 1035.87 100.46C1034.79 100.94 1033.71 101.18 1032.63 101.18C1031.81 101.18 1031.18 100.946 1030.74 100.478C1030.31 100.01 1030.1 99.338 1030.1 98.462C1030.1 97.586 1030.32 96.944 1030.76 96.536C1031.21 96.116 1031.9 95.858 1032.85 95.762L1035.68 95.492V94.718C1035.68 94.106 1035.54 93.668 1035.28 93.404C1035.02 93.14 1034.66 93.008 1034.2 93.008C1033.24 93.008 1032.24 93.068 1031.21 93.188L1030.65 93.242L1030.6 92.216C1031.92 91.952 1033.09 91.82 1034.11 91.82C1035.13 91.82 1035.87 92.054 1036.32 92.522C1036.79 92.99 1037.03 93.722 1037.03 94.718ZM1031.48 98.39C1031.48 99.494 1031.94 100.046 1032.85 100.046C1033.67 100.046 1034.47 99.908 1035.26 99.632L1035.68 99.488V96.518L1033.01 96.77C1032.47 96.818 1032.08 96.974 1031.84 97.238C1031.6 97.502 1031.48 97.886 1031.48 98.39ZM1044.35 93.17H1041.49V97.472C1041.49 98.504 1041.56 99.182 1041.7 99.506C1041.86 99.83 1042.22 99.992 1042.78 99.992L1044.39 99.884L1044.48 101C1043.67 101.132 1043.06 101.198 1042.64 101.198C1041.7 101.198 1041.06 100.97 1040.7 100.514C1040.34 100.058 1040.16 99.188 1040.16 97.904V93.17H1038.88V92H1040.16V89.246H1041.49V92H1044.35V93.17ZM1046 101V92H1047.35V101H1046ZM1046 89.966V88.4H1047.35V89.966H1046ZM1049.54 96.482C1049.54 94.838 1049.83 93.65 1050.42 92.918C1051.01 92.186 1052 91.82 1053.39 91.82C1054.8 91.82 1055.79 92.186 1056.36 92.918C1056.95 93.65 1057.24 94.838 1057.24 96.482C1057.24 98.126 1056.97 99.32 1056.42 100.064C1055.86 100.808 1054.86 101.18 1053.39 101.18C1051.93 101.18 1050.92 100.808 1050.37 100.064C1049.82 99.32 1049.54 98.126 1049.54 96.482ZM1050.93 96.464C1050.93 97.772 1051.08 98.69 1051.39 99.218C1051.72 99.746 1052.38 100.01 1053.39 100.01C1054.41 100.01 1055.08 99.752 1055.39 99.236C1055.7 98.708 1055.86 97.784 1055.86 96.464C1055.86 95.144 1055.68 94.238 1055.34 93.746C1054.99 93.242 1054.34 92.99 1053.39 92.99C1052.46 92.99 1051.81 93.242 1051.45 93.746C1051.1 94.238 1050.93 95.144 1050.93 96.464ZM1060.8 101H1059.45V92H1060.78V92.63C1061.75 92.09 1062.68 91.82 1063.57 91.82C1064.77 91.82 1065.57 92.144 1065.98 92.792C1066.4 93.44 1066.61 94.592 1066.61 96.248V101H1065.28V96.284C1065.28 95.036 1065.15 94.184 1064.9 93.728C1064.66 93.26 1064.14 93.026 1063.33 93.026C1062.95 93.026 1062.54 93.086 1062.11 93.206C1061.69 93.314 1061.37 93.422 1061.14 93.53L1060.8 93.692V101ZM1071.94 93.026C1070.63 93.026 1069.98 93.482 1069.98 94.394C1069.98 94.814 1070.13 95.114 1070.43 95.294C1070.73 95.462 1071.41 95.642 1072.48 95.834C1073.55 96.014 1074.3 96.272 1074.75 96.608C1075.19 96.944 1075.41 97.574 1075.41 98.498C1075.41 99.422 1075.11 100.1 1074.51 100.532C1073.93 100.964 1073.06 101.18 1071.92 101.18C1071.18 101.18 1070.3 101.096 1069.29 100.928L1068.75 100.838L1068.83 99.668C1070.19 99.872 1071.23 99.974 1071.92 99.974C1072.62 99.974 1073.15 99.866 1073.51 99.65C1073.88 99.422 1074.06 99.05 1074.06 98.534C1074.06 98.006 1073.91 97.652 1073.6 97.472C1073.28 97.28 1072.6 97.1 1071.54 96.932C1070.49 96.764 1069.74 96.518 1069.29 96.194C1068.85 95.87 1068.63 95.27 1068.63 94.394C1068.63 93.518 1068.93 92.87 1069.55 92.45C1070.17 92.03 1070.94 91.82 1071.87 91.82C1072.6 91.82 1073.52 91.904 1074.62 92.072L1075.13 92.162L1075.09 93.314C1073.76 93.122 1072.71 93.026 1071.94 93.026Z" fill="white" fill-opacity="0.72"/>
<path d="M1480.79 24.9605C1464.88 40.8683 1447.7 23.6856 1431.79 39.5962C1415.87 55.5068 1433.06 72.6895 1417.15 88.5973C1401.24 104.505 1384.06 87.3252 1368.15 103.236C1352.23 119.146 1369.42 136.326 1353.51 152.237C1337.6 168.147 1320.42 150.965 1304.51 166.873C1288.6 182.78 1305.78 199.966 1289.87 215.876C1273.96 231.787 1256.78 214.604 1240.87 230.515C1224.96 246.426 1242.14 263.608 1226.23 279.519" stroke="white" stroke-opacity="0.08" stroke-width="2" stroke-miterlimit="10"/>
<path d="M1429.26 -26.5629C1413.36 -10.6552 1396.17 -27.8379 1380.26 -11.9272C1364.35 3.98338 1381.53 21.1661 1365.63 37.0738C1349.72 52.9816 1332.53 35.8018 1316.62 51.7124C1300.71 67.623 1317.9 84.8028 1301.99 100.713C1286.08 116.624 1268.89 99.4414 1252.99 115.349C1237.08 131.257 1254.26 148.442 1238.35 164.353C1222.44 180.264 1205.25 163.081 1189.34 178.992C1173.43 194.902 1190.61 212.085 1174.7 227.996" stroke="white" stroke-opacity="0.08" stroke-width="2" stroke-miterlimit="10"/>
<path d="M1532.31 76.4825C1516.4 92.3902 1499.22 75.2076 1483.31 91.1182C1467.4 107.029 1484.58 124.211 1468.67 140.119C1452.77 156.027 1435.58 138.847 1419.67 154.758C1403.76 170.668 1420.94 187.848 1405.03 203.759C1389.12 219.669 1371.94 202.487 1356.03 218.395C1340.12 234.302 1357.3 251.488 1341.39 267.398C1325.48 283.309 1308.3 266.126 1292.39 282.037C1276.48 297.948 1293.66 315.13 1277.75 331.041" stroke="white" stroke-opacity="0.08" stroke-width="2" stroke-miterlimit="10"/>
<path d="M1403.5 -52.3241C1387.6 -36.4164 1370.41 -53.5991 1354.5 -37.6885C1338.59 -21.7778 1355.77 -4.59516 1339.87 11.3126C1323.96 27.2203 1306.77 10.0405 1290.86 25.9511C1274.95 41.8618 1292.14 59.0416 1276.23 74.9522C1260.32 90.8628 1243.13 73.6801 1227.23 89.5879C1211.32 105.496 1228.5 122.681 1212.59 138.592C1196.68 154.502 1179.49 137.32 1163.58 153.23C1147.67 169.141 1164.86 186.324 1148.94 202.234" stroke="white" stroke-opacity="0.08" stroke-width="2" stroke-miterlimit="10"/>
<path d="M1506.55 50.7208C1490.64 66.6285 1473.46 49.4458 1457.55 65.3565C1441.64 81.2671 1458.82 98.4498 1442.91 114.358C1427 130.265 1409.82 113.085 1393.91 128.996C1378 144.907 1395.18 162.087 1379.27 177.997C1363.36 193.908 1346.18 176.725 1330.27 192.633C1314.36 208.541 1331.54 225.726 1315.63 241.637C1299.72 257.547 1282.54 240.365 1266.63 256.275C1250.72 272.186 1267.9 289.369 1251.99 305.279" stroke="white" stroke-opacity="0.08" stroke-width="2" stroke-miterlimit="10"/>
<path d="M1583.83 128.005C1567.92 143.913 1550.74 126.731 1534.83 142.641C1518.92 158.552 1536.1 175.734 1520.19 191.642C1504.29 207.55 1487.1 190.37 1471.19 206.281C1455.28 222.191 1472.47 239.371 1456.55 255.282C1440.64 271.192 1423.46 254.01 1407.55 269.917C1391.65 285.825 1408.83 303.011 1392.92 318.921C1377 334.832 1359.82 317.649 1343.91 333.56C1328 349.471 1345.18 366.653 1329.27 382.564" stroke="white" stroke-opacity="0.08" stroke-width="2" stroke-miterlimit="10"/>
<path d="M1455.02 -0.801192C1439.12 15.1066 1421.93 -2.07614 1406.02 13.8345C1390.11 29.7451 1407.3 46.9278 1391.39 62.8355C1375.48 78.7433 1358.29 61.5635 1342.38 77.4741C1326.47 93.3847 1343.66 110.565 1327.75 126.475C1311.84 142.386 1294.65 125.203 1278.75 141.111C1262.84 157.019 1280.02 174.204 1264.11 190.115C1248.2 206.025 1231.02 188.843 1215.1 204.753C1199.19 220.664 1216.38 237.847 1200.47 253.757" stroke="white" stroke-opacity="0.08" stroke-width="2" stroke-miterlimit="10"/>
<path d="M1558.07 102.244C1542.16 118.151 1524.98 100.969 1509.07 116.879C1493.16 132.79 1510.34 149.973 1494.43 165.88C1478.52 181.788 1461.34 164.608 1445.43 180.519C1429.52 196.43 1446.7 213.609 1430.79 229.52C1414.88 245.431 1397.7 228.248 1381.79 244.156C1365.88 260.063 1383.06 277.249 1367.15 293.16C1351.24 309.07 1334.06 291.888 1318.15 307.798C1302.24 323.709 1319.42 340.892 1303.51 356.802" stroke="white" stroke-opacity="0.08" stroke-width="2" stroke-miterlimit="10"/>
<path d="M1489.36 33.5387C1473.46 49.4464 1456.27 32.2637 1440.36 48.1743C1424.45 64.0849 1441.64 81.2676 1425.73 97.1754C1409.82 113.083 1392.63 95.9033 1376.72 111.814C1360.81 127.725 1378 144.904 1362.09 160.815C1346.18 176.726 1328.99 159.543 1313.09 175.451C1297.18 191.358 1314.36 208.544 1298.45 224.455C1282.54 240.365 1265.36 223.183 1249.44 239.093C1233.53 255.004 1250.72 272.186 1234.81 288.097" stroke="white" stroke-opacity="0.08" stroke-width="2" stroke-miterlimit="10"/>
<path d="M1437.84 -17.9843C1421.94 -2.07655 1404.75 -19.2592 1388.84 -3.34862C1372.93 12.562 1390.11 29.7447 1374.21 45.6524C1358.3 61.5602 1341.11 44.3804 1325.2 60.291C1309.29 76.2016 1326.48 93.3814 1310.57 109.292C1294.66 125.203 1277.47 108.02 1261.57 123.928C1245.66 139.835 1262.84 157.021 1246.93 172.932C1231.02 188.842 1213.83 171.66 1197.92 187.57C1182.01 203.481 1199.2 220.664 1183.28 236.574" stroke="white" stroke-opacity="0.08" stroke-width="2" stroke-miterlimit="10"/>
<path d="M1540.89 85.0606C1524.98 100.968 1507.8 83.7857 1491.89 99.6963C1475.98 115.607 1493.16 132.79 1477.25 148.697C1461.34 164.605 1444.16 147.425 1428.25 163.336C1412.34 179.247 1429.52 196.426 1413.61 212.337C1397.7 228.248 1380.52 211.065 1364.61 226.973C1348.7 242.88 1365.88 260.066 1349.97 275.977C1334.06 291.887 1316.88 274.705 1300.97 290.615C1285.06 306.526 1302.24 323.708 1286.33 339.619" stroke="white" stroke-opacity="0.08" stroke-width="2" stroke-miterlimit="10"/>
<path d="M1412.08 -43.746C1396.17 -27.8383 1378.99 -45.021 1363.08 -29.1103C1347.17 -13.1997 1364.35 3.98297 1348.44 19.8907C1332.54 35.7985 1315.35 18.6186 1299.44 34.5293C1283.53 50.4399 1300.72 67.6197 1284.8 83.5303C1268.89 99.4409 1251.71 82.2583 1235.8 98.166C1219.9 114.074 1237.08 131.259 1221.17 147.17C1205.25 163.081 1188.07 145.898 1172.16 161.808C1156.25 177.719 1173.43 194.902 1157.52 210.812" stroke="white" stroke-opacity="0.08" stroke-width="2" stroke-miterlimit="10"/>
<path d="M1515.13 59.3004C1499.22 75.2081 1482.04 58.0254 1466.12 73.936C1450.21 89.8467 1467.4 107.029 1451.49 122.937C1435.58 138.845 1418.4 121.665 1402.49 137.576C1386.57 153.486 1403.76 170.666 1387.85 186.577C1371.94 202.487 1354.76 185.305 1338.85 201.212C1322.94 217.12 1340.12 234.306 1324.21 250.216C1308.3 266.127 1291.12 248.944 1275.21 264.855C1259.3 280.765 1276.48 297.948 1260.57 313.859" stroke="white" stroke-opacity="0.08" stroke-width="2" stroke-miterlimit="10"/>
<path d="M1463.6 7.77742C1447.69 23.6852 1430.51 6.50248 1414.6 22.4131C1398.69 38.3237 1415.87 55.5064 1399.97 71.4142C1384.06 87.3219 1366.87 70.1421 1350.96 86.0527C1335.05 101.963 1352.24 119.143 1336.33 135.054C1320.42 150.964 1303.23 133.782 1287.33 149.689C1271.42 165.597 1288.6 182.783 1272.69 198.693C1256.78 214.604 1239.59 197.421 1223.68 213.332C1207.77 229.243 1224.95 246.425 1209.04 262.336" stroke="white" stroke-opacity="0.08" stroke-width="2" stroke-miterlimit="10"/>
<path d="M1566.65 110.822C1550.74 126.73 1533.56 109.547 1517.65 125.458C1501.74 141.368 1518.92 158.551 1503.01 174.459C1487.11 190.366 1469.92 173.187 1454.01 189.097C1438.1 205.008 1455.28 222.188 1439.37 238.098C1423.46 254.009 1406.28 236.826 1390.37 252.734C1374.46 268.642 1391.64 285.827 1375.73 301.738C1359.82 317.648 1342.64 300.466 1326.73 316.376C1310.82 332.287 1328 349.47 1312.09 365.38" stroke="white" stroke-opacity="0.08" stroke-width="2" stroke-miterlimit="10"/>
<path d="M1386.32 -69.5072C1370.41 -53.5995 1353.23 -70.7822 1337.32 -54.8716C1321.41 -38.961 1338.59 -21.7783 1322.68 -5.87051C1306.77 10.0372 1289.59 -7.14258 1273.68 8.76803C1257.77 24.6787 1274.95 41.8585 1259.04 57.7691C1243.13 73.6797 1225.95 56.497 1210.04 72.4048C1194.13 88.3125 1211.31 105.498 1195.4 121.409C1179.49 137.319 1162.31 120.137 1146.4 136.047C1130.49 151.958 1147.67 169.141 1131.76 185.051" stroke="white" stroke-opacity="0.08" stroke-width="2" stroke-miterlimit="10"/>
<path d="M1489.36 33.5387C1473.46 49.4464 1456.27 32.2637 1440.36 48.1743C1424.45 64.0849 1441.64 81.2676 1425.73 97.1754C1409.82 113.083 1392.63 95.9033 1376.72 111.814C1360.81 127.725 1378 144.904 1362.09 160.815C1346.18 176.726 1328.99 159.543 1313.09 175.451C1297.18 191.358 1314.36 208.544 1298.45 224.455C1282.54 240.365 1265.36 223.183 1249.44 239.093C1233.53 255.004 1250.72 272.186 1234.81 288.097" stroke="white" stroke-opacity="0.08" stroke-width="2" stroke-miterlimit="10"/>
<path d="M1437.84 -17.9843C1421.94 -2.07655 1404.75 -19.2592 1388.84 -3.34862C1372.93 12.562 1390.11 29.7447 1374.21 45.6524C1358.3 61.5602 1341.11 44.3804 1325.2 60.291C1309.29 76.2016 1326.48 93.3814 1310.57 109.292C1294.66 125.203 1277.47 108.02 1261.57 123.928C1245.66 139.835 1262.84 157.021 1246.93 172.932C1231.02 188.842 1213.83 171.66 1197.92 187.57C1182.01 203.481 1199.2 220.664 1183.28 236.574" stroke="white" stroke-opacity="0.08" stroke-width="2" stroke-miterlimit="10"/>
<path d="M1540.89 85.0606C1524.98 100.968 1507.8 83.7857 1491.89 99.6963C1475.98 115.607 1493.16 132.79 1477.25 148.697C1461.34 164.605 1444.16 147.425 1428.25 163.336C1412.34 179.247 1429.52 196.426 1413.61 212.337C1397.7 228.248 1380.52 211.065 1364.61 226.973C1348.7 242.88 1365.88 260.066 1349.97 275.977C1334.06 291.887 1316.88 274.705 1300.97 290.615C1285.06 306.526 1302.24 323.708 1286.33 339.619" stroke="white" stroke-opacity="0.08" stroke-width="2" stroke-miterlimit="10"/>
<path d="M1412.08 -43.746C1396.17 -27.8383 1378.99 -45.021 1363.08 -29.1103C1347.17 -13.1997 1364.35 3.98297 1348.44 19.8907C1332.54 35.7985 1315.35 18.6186 1299.44 34.5293C1283.53 50.4399 1300.72 67.6197 1284.8 83.5303C1268.89 99.4409 1251.71 82.2583 1235.8 98.166C1219.9 114.074 1237.08 131.259 1221.17 147.17C1205.25 163.081 1188.07 145.898 1172.16 161.808C1156.25 177.719 1173.43 194.902 1157.52 210.812" stroke="white" stroke-opacity="0.08" stroke-width="2" stroke-miterlimit="10"/>
<path d="M1515.13 59.3004C1499.22 75.2081 1482.04 58.0254 1466.12 73.936C1450.21 89.8467 1467.4 107.029 1451.49 122.937C1435.58 138.845 1418.4 121.665 1402.49 137.576C1386.57 153.486 1403.76 170.666 1387.85 186.577C1371.94 202.487 1354.76 185.305 1338.85 201.212C1322.94 217.12 1340.12 234.306 1324.21 250.216C1308.3 266.127 1291.12 248.944 1275.21 264.855C1259.3 280.765 1276.48 297.948 1260.57 313.859" stroke="white" stroke-opacity="0.08" stroke-width="2" stroke-miterlimit="10"/>
<path d="M1463.6 7.77742C1447.69 23.6852 1430.51 6.50248 1414.6 22.4131C1398.69 38.3237 1415.87 55.5064 1399.97 71.4142C1384.06 87.3219 1366.87 70.1421 1350.96 86.0527C1335.05 101.963 1352.24 119.143 1336.33 135.054C1320.42 150.964 1303.23 133.782 1287.33 149.689C1271.42 165.597 1288.6 182.783 1272.69 198.693C1256.78 214.604 1239.59 197.421 1223.68 213.332C1207.77 229.243 1224.95 246.425 1209.04 262.336" stroke="white" stroke-opacity="0.08" stroke-width="2" stroke-miterlimit="10"/>
<path d="M1566.65 110.822C1550.74 126.73 1533.56 109.547 1517.65 125.458C1501.74 141.368 1518.92 158.551 1503.01 174.459C1487.11 190.366 1469.92 173.187 1454.01 189.097C1438.1 205.008 1455.28 222.188 1439.37 238.098C1423.46 254.009 1406.28 236.826 1390.37 252.734C1374.46 268.642 1391.64 285.827 1375.73 301.738C1359.82 317.648 1342.64 300.466 1326.73 316.376C1310.82 332.287 1328 349.47 1312.09 365.38" stroke="white" stroke-opacity="0.08" stroke-width="2" stroke-miterlimit="10"/>
<path d="M1394.9 -60.9286C1378.99 -45.0209 1361.81 -62.2036 1345.9 -46.293C1329.99 -30.3823 1347.17 -13.1996 1331.26 2.7081C1315.35 18.6159 1298.17 1.43603 1282.26 17.3466C1266.35 33.2573 1283.53 50.4371 1267.62 66.3477C1251.71 82.2583 1234.53 65.0756 1218.62 80.9834C1202.71 96.8911 1219.89 114.077 1203.98 129.987C1188.07 145.898 1170.89 128.715 1154.98 144.626C1139.07 160.536 1156.25 177.719 1140.34 193.63" stroke="white" stroke-opacity="0.08" stroke-width="2" stroke-miterlimit="10"/>
<path d="M1497.94 42.1168C1482.03 58.0245 1464.85 40.8418 1448.94 56.7524C1433.03 72.6631 1450.21 89.8458 1434.31 105.754C1418.4 121.661 1401.21 104.481 1385.3 120.392C1369.39 136.303 1386.58 153.483 1370.67 169.393C1354.76 185.304 1337.57 168.121 1321.67 184.029C1305.76 199.937 1322.94 217.122 1307.03 233.033C1291.12 248.943 1273.93 231.761 1258.02 247.671C1242.11 263.582 1259.29 280.765 1243.38 296.675" stroke="white" stroke-opacity="0.08" stroke-width="2" stroke-miterlimit="10"/>
<path d="M1446.42 -9.40617C1430.51 6.50158 1413.33 -10.6811 1397.42 5.2295C1381.51 21.1401 1398.69 38.3228 1382.78 54.2306C1366.88 70.1383 1349.69 52.9585 1333.78 68.8691C1317.87 84.7797 1335.06 101.96 1319.14 117.87C1303.23 133.781 1286.05 116.598 1270.14 132.506C1254.24 148.414 1271.42 165.599 1255.51 181.51C1239.59 197.42 1222.41 180.238 1206.5 196.148C1190.59 212.059 1207.77 229.242 1191.86 245.152" stroke="white" stroke-opacity="0.08" stroke-width="2" stroke-miterlimit="10"/>
<path d="M1549.47 93.6402C1533.56 109.548 1516.38 92.3653 1500.46 108.276C1484.55 124.187 1501.74 141.369 1485.83 157.277C1469.92 173.185 1452.74 156.005 1436.83 171.915C1420.91 187.826 1438.1 205.006 1422.19 220.917C1406.28 236.827 1389.1 219.644 1373.19 235.552C1357.28 251.46 1374.46 268.646 1358.55 284.556C1342.64 300.467 1325.46 283.284 1309.55 299.195C1293.64 315.105 1310.82 332.288 1294.91 348.199" stroke="white" stroke-opacity="0.08" stroke-width="2" stroke-miterlimit="10"/>
<path d="M1420.66 -35.1674C1404.75 -19.2597 1387.57 -36.4423 1371.66 -20.5317C1355.75 -4.62111 1372.93 12.5616 1357.02 28.4693C1341.11 44.3771 1323.93 27.1973 1308.02 43.1079C1292.11 59.0185 1309.29 76.1983 1293.38 92.1089C1277.47 108.02 1260.29 90.8369 1244.38 106.745C1228.47 122.652 1245.65 139.838 1229.74 155.749C1213.83 171.659 1196.65 154.476 1180.74 170.387C1164.83 186.298 1182.01 203.48 1166.1 219.391" stroke="white" stroke-opacity="0.08" stroke-width="2" stroke-miterlimit="10"/>
<path d="M1523.7 67.8785C1507.8 83.7862 1490.61 66.6035 1474.7 82.5142C1458.79 98.4248 1475.98 115.607 1460.07 131.515C1444.16 147.423 1426.97 130.243 1411.06 146.154C1395.15 162.064 1412.34 179.244 1396.43 195.155C1380.52 211.065 1363.33 193.883 1347.43 209.791C1331.52 225.698 1348.7 242.884 1332.79 258.794C1316.88 274.705 1299.69 257.522 1283.78 273.433C1267.87 289.344 1285.06 306.526 1269.15 322.437" stroke="white" stroke-opacity="0.08" stroke-width="2" stroke-miterlimit="10"/>
<path d="M1472.18 16.3555C1456.27 32.2633 1439.09 15.0806 1423.18 30.9912C1407.27 46.9018 1424.45 64.0845 1408.55 79.9923C1392.64 95.9 1375.45 78.7202 1359.54 94.6308C1343.63 110.541 1360.82 127.721 1344.91 143.632C1329 159.543 1311.81 142.36 1295.91 158.268C1280 174.175 1297.18 191.361 1281.27 207.271C1265.36 223.182 1248.17 205.999 1232.26 221.91C1216.35 237.821 1233.53 255.003 1217.62 270.914" stroke="white" stroke-opacity="0.08" stroke-width="2" stroke-miterlimit="10"/>
<path d="M1575.23 119.4C1559.32 135.308 1542.14 118.126 1526.23 134.036C1510.32 149.947 1527.5 167.129 1511.59 183.037C1495.68 198.945 1478.5 181.765 1462.59 197.676C1446.68 213.586 1463.86 230.766 1447.95 246.677C1432.04 262.587 1414.86 245.405 1398.95 261.312C1383.04 277.22 1400.22 294.406 1384.31 310.316C1368.4 326.227 1351.22 309.044 1335.31 324.955C1319.4 340.866 1336.58 358.048 1320.67 373.959" stroke="white" stroke-opacity="0.08" stroke-width="2" stroke-miterlimit="10"/>
<path d="M1377.74 -78.0859C1361.83 -62.1781 1344.65 -79.3608 1328.74 -63.4502C1312.83 -47.5396 1330.01 -30.3569 1314.1 -14.4491C1298.2 1.45862 1281.01 -15.7212 1265.1 0.189421C1249.19 16.1 1266.38 33.2799 1250.46 49.1905C1234.55 65.1011 1217.37 47.9184 1201.46 63.8262C1185.56 79.7339 1202.74 96.9195 1186.83 112.83C1170.91 128.741 1153.73 111.558 1137.82 127.469C1121.91 143.379 1139.09 160.562 1123.18 176.473" stroke="white" stroke-opacity="0.08" stroke-width="2" stroke-miterlimit="10"/>
<path d="M1386.32 -69.5072C1370.41 -53.5995 1353.23 -70.7822 1337.32 -54.8716C1321.41 -38.961 1338.59 -21.7783 1322.68 -5.87051C1306.77 10.0372 1289.59 -7.14258 1273.68 8.76803C1257.77 24.6787 1274.95 41.8585 1259.04 57.7691C1243.13 73.6797 1225.95 56.497 1210.04 72.4048C1194.13 88.3125 1211.31 105.498 1195.4 121.409C1179.49 137.319 1162.31 120.137 1146.4 136.047C1130.49 151.958 1147.67 169.141 1131.76 185.051" stroke="white" stroke-opacity="0.08" stroke-width="2" stroke-miterlimit="10"/>
</g>
<defs>
<clipPath id="clip0_1_581">
<rect width="1312" height="138" fill="white"/>
</clipPath>
</defs>
</svg>
