<svg width="248" height="45" viewBox="0 0 248 45" fill="none" xmlns="http://www.w3.org/2000/svg">
<path d="M21.0616 6.73523L13.7854 14.0114C13.1672 14.6297 13.1672 15.632 13.7854 16.2503L17.1437 19.6085C17.7619 20.2268 18.7643 20.2268 19.3825 19.6085L26.6587 12.3323C27.277 11.7141 27.277 10.7117 26.6587 10.0935L23.3005 6.73523C22.6822 6.117 21.6799 6.117 21.0616 6.73523Z" fill="#407BFF"/>
<path d="M26.7821 8.74082L29.0213 6.50191L29.5811 7.06178C29.7296 7.21024 29.931 7.29365 30.1409 7.29365C30.3509 7.29365 30.5522 7.21024 30.7007 7.06178L31.2605 6.50191C31.409 6.35344 31.4924 6.15208 31.4924 5.94212C31.4924 5.73216 31.409 5.5308 31.2605 5.38234L27.9017 2.02337C27.7532 1.87491 27.5519 1.7915 27.3419 1.7915C27.1319 1.7915 26.9306 1.87491 26.7821 2.02337L26.2223 2.58316C26.0739 2.73163 25.9905 2.93299 25.9905 3.14295C25.9905 3.35291 26.0739 3.55427 26.2223 3.70273L26.7821 4.26252L24.543 6.50191L26.7821 8.74082Z" fill="#407BFF"/>
<path d="M31.6693 33.4579H31.177C32.5408 31.9464 33.5639 30.1594 34.1768 28.2181C34.7897 26.2767 34.9782 24.2262 34.7296 22.2056C34.4809 20.185 33.8009 18.2415 32.7355 16.5066C31.6702 14.7718 30.2445 13.2861 28.5549 12.1504C28.4077 12.6403 28.143 13.0868 27.7836 13.4509L25.4324 15.8022C26.6096 16.5012 27.6217 17.4466 28.3992 18.5735C29.1768 19.7004 29.7014 20.9821 29.937 22.3308C30.1727 23.6795 30.1139 25.0632 29.7646 26.387C29.4153 27.7108 28.7838 28.9434 27.9135 30.0002C27.0431 31.0571 25.9544 31.9131 24.7221 32.5097C23.4898 33.1063 22.1431 33.4293 20.7742 33.4566C19.4054 33.4838 18.0468 33.2146 16.7918 32.6675C15.5367 32.1205 14.4149 31.3084 13.5031 30.287C13.4887 30.287 13.4754 30.2913 13.4609 30.2913H7.8401C8.40694 31.4382 9.12592 32.5033 9.9776 33.4579H9.5026C8.66303 33.4588 7.8581 33.7928 7.26443 34.3864C6.67076 34.9801 6.33684 35.785 6.33594 36.6246V37.4163C6.33594 37.6262 6.41935 37.8276 6.56781 37.9761C6.71628 38.1245 6.91764 38.2079 7.1276 38.2079H34.0443C34.2542 38.2079 34.4556 38.1245 34.6041 37.9761C34.7525 37.8276 34.8359 37.6262 34.8359 37.4163V36.6246C34.835 35.785 34.5011 34.9801 33.9074 34.3864C33.3138 33.7928 32.5088 33.4588 31.6693 33.4579Z" fill="#151516"/>
<path d="M15.8346 26.3331V25.5414C15.8346 25.3315 15.7512 25.1301 15.6028 24.9816C15.4543 24.8332 15.2529 24.7498 15.043 24.7498H3.95964C3.74967 24.7498 3.54831 24.8332 3.39984 24.9816C3.25138 25.1301 3.16797 25.3315 3.16797 25.5414V26.3331C3.16866 26.9628 3.4191 27.5665 3.86435 28.0117C4.3096 28.457 4.91329 28.7074 5.54297 28.7081H13.4596C14.0893 28.7074 14.693 28.457 15.1383 28.0117C15.5835 27.5665 15.8339 26.9628 15.8346 26.3331Z" fill="#151516"/>
<path d="M14.3477 21.2882C14.4962 21.4367 14.6976 21.5201 14.9075 21.5201C15.1175 21.5201 15.3188 21.4367 15.4673 21.2882L16.0273 20.7283L12.6684 17.3701L12.1088 17.9297C11.9604 18.0781 11.877 18.2795 11.877 18.4895C11.877 18.6994 11.9604 18.9008 12.1088 19.0492L14.3477 21.2882Z" fill="#407BFF"/>
<path d="M59.8213 10.6729C65.2578 10.6729 68.375 14.3652 68.375 19.1152C68.375 23.9395 65.2207 27.502 59.7656 27.502H54.7002V36H49.6904V10.6729H59.8213ZM63.2725 19.1152C63.2725 16.2764 61.6211 14.6621 58.8564 14.6621H54.6816V23.5684H57.6875C61.1758 23.5684 63.2725 22.5479 63.2725 19.1152ZM71.8818 36V16.3135H76.7617V19.0225H76.9658C77.4111 17.7607 78.877 16.0166 81.5674 16.0166C82.2354 16.0166 82.7363 16.0723 83.126 16.1465V20.377C82.7363 20.2656 81.957 20.21 81.1963 20.21C77.9863 20.21 76.873 22.1396 76.873 24.7744V36H71.8818ZM94.3145 15.9609C100.104 15.9609 103.313 19.9316 103.313 25.3682V26.8154C103.313 32.5488 100.122 36.3525 94.3145 36.3525C88.5068 36.3525 85.2969 32.5488 85.2969 26.834V25.3867C85.2969 19.9502 88.5068 15.9609 94.3145 15.9609ZM94.3145 19.7461C91.4941 19.7461 90.2324 22.1768 90.2324 25.3682V26.8896C90.2324 29.9883 91.457 32.5488 94.3145 32.5488C97.1533 32.5488 98.3779 30.0068 98.3779 26.8896V25.3682C98.3779 22.1582 97.1348 19.7461 94.3145 19.7461ZM112.183 36H107.711V10.6729H112.813L120.031 27.0195H120.18L127.416 10.6729H132.481V36H127.973V19.2637H127.769L121.72 32.8271H118.454L112.387 19.2637H112.183V36ZM145.804 36.3525C140.404 36.3525 136.879 32.9756 136.879 26.9453V25.1455C136.879 19.375 140.423 15.9609 145.6 15.9609C150.962 15.9609 154.283 19.6162 154.283 25.2754V27.2051H141.666V27.7432C141.666 30.7305 143.354 32.623 145.841 32.623C147.789 32.623 149.162 31.6582 149.57 30.0625H154.098C153.634 33.2168 151.073 36.3525 145.804 36.3525ZM141.666 24.1064H149.552V24.0693C149.552 21.5273 148.012 19.5977 145.637 19.5977C143.243 19.5977 141.666 21.5459 141.666 24.0693V24.1064ZM165.063 16.0537C167.735 16.0537 169.795 17.334 170.667 19.1895H170.853V9.33691H175.751V36H170.945V32.957H170.741C169.813 34.9795 167.754 36.2412 165.063 36.2412C160.276 36.2412 157.53 32.6787 157.53 26.9639V25.3125C157.53 19.6904 160.369 16.0537 165.063 16.0537ZM166.622 19.9688C164.266 19.9688 162.54 21.7871 162.54 25.4795V26.834C162.54 30.5264 164.266 32.3447 166.659 32.3447C169.238 32.3447 170.89 30.4336 170.89 26.8525V25.4795C170.89 22.0283 169.22 19.9688 166.622 19.9688Z" fill="#407BFF"/>
<path d="M204.195 31.7324V36H188.442V10.6729H193.452V31.7324H204.195ZM212.563 36.2969C208.723 36.2969 206.088 34.0332 206.088 30.3223C206.088 26.7969 208.537 24.5332 213.102 24.5332H217.907V22.752C217.907 20.7852 216.72 19.6904 214.66 19.6904C212.656 19.6904 211.506 20.748 211.376 22.3252H206.812C206.96 19.041 209.075 15.998 214.753 15.998C219.28 15.998 222.731 18.1133 222.731 22.6963V36H218.111V33.6064H217.907C217.128 35.0537 215.458 36.2969 212.563 36.2969ZM214.141 32.7344C216.237 32.7344 217.907 31.4541 217.907 29.543V27.4648H214.159C212.007 27.4648 210.949 28.5039 210.949 30.0068C210.949 31.8438 212.508 32.7344 214.141 32.7344ZM238.206 36.2598C235.423 36.2598 233.456 34.9795 232.473 32.957H232.287V36H227.463V9.33691H232.361V19.1709H232.565C233.438 17.334 235.627 16.0537 238.225 16.0537C242.696 16.0537 245.721 19.2637 245.721 25.2754V27.001C245.721 32.8828 242.771 36.2598 238.206 36.2598ZM236.666 32.3633C239.06 32.3633 240.711 30.4336 240.711 26.834V25.4795C240.711 21.8613 239.06 19.9688 236.666 19.9688C234.031 19.9688 232.324 21.8428 232.324 25.4795V26.8154C232.324 30.4521 234.013 32.3633 236.666 32.3633Z" fill="#151516"/>
</svg>
