<svg width="24" height="24" viewBox="0 0 24 24" fill="none" xmlns="http://www.w3.org/2000/svg">
<path d="M4 13H10C10.55 13 11 12.55 11 12V4C11 3.45 10.55 3 10 3H4C3.45 3 3 3.45 3 4V12C3 12.55 3.45 13 4 13ZM4 21H10C10.55 21 11 20.55 11 20V16C11 15.45 10.55 15 10 15H4C3.45 15 3 15.45 3 16V20C3 20.55 3.45 21 4 21ZM14 21H20C20.55 21 21 20.55 21 20V12C21 11.45 20.55 11 20 11H14C13.45 11 13 11.45 13 12V20C13 20.55 13.45 21 14 21ZM13 4V8C13 8.55 13.45 9 14 9H20C20.55 9 21 8.55 21 8V4C21 3.45 20.55 3 20 3H14C13.45 3 13 3.45 13 4Z" fill="#100DB1"/>
<path d="M15.8835 16.856C15.5384 16.856 15.2585 16.5761 15.2585 16.231C15.2585 14.9903 14.2559 13.981 13.0234 13.981H12.4937C11.2612 13.981 10.2585 14.9903 10.2585 16.231C10.2585 16.5761 9.97873 16.856 9.63354 16.856C9.28836 16.856 9.00854 16.5761 9.00854 16.231C9.00854 14.3011 10.572 12.731 12.4937 12.731H13.0234C14.9451 12.731 16.5085 14.3011 16.5085 16.231C16.5085 16.5761 16.2287 16.856 15.8835 16.856ZM10.0398 5.54346C10.0398 5.19827 9.75998 4.91846 9.41479 4.91846H5.10229C4.75711 4.91846 4.47729 5.19827 4.47729 5.54346C4.47729 5.88864 4.75711 6.16846 5.10229 6.16846H9.41479C9.75998 6.16846 10.0398 5.88864 10.0398 5.54346Z" fill="#F80D38"/>
</svg>
