<svg width="17" height="15" viewBox="0 0 17 15" fill="none" xmlns="http://www.w3.org/2000/svg">
<path d="M13.0241 12.3641H3.99222C1.79563 12.3641 0.00854492 10.8072 0.00854492 8.89358V4.14917C0.00854492 2.23522 1.79593 0.678101 3.99291 0.678101H10.5671C10.9339 0.678101 11.2312 0.937101 11.2312 1.25661C11.2312 1.57613 10.9339 1.83513 10.5671 1.83513H3.99291C2.52826 1.83513 1.33667 2.87321 1.33667 4.14917V8.89358C1.33667 10.1692 2.52796 11.207 3.99222 11.207H13.0241C14.4888 11.207 15.6804 10.1689 15.6804 8.89298V6.28967C15.6804 5.97016 15.9777 5.71116 16.3445 5.71116C16.7112 5.71116 17.0085 5.97016 17.0085 6.28967V8.89298C17.0085 10.8069 15.2211 12.3641 13.0241 12.3641ZM12.3601 14.0996C12.3601 13.7801 12.0628 13.5211 11.696 13.5211H5.32104C4.95427 13.5211 4.65697 13.7801 4.65697 14.0996C4.65697 14.4191 4.95427 14.6781 5.32104 14.6781H11.696C12.0628 14.6781 12.3601 14.4191 12.3601 14.0996Z" fill="#100DB1"/>
<path d="M16.3445 4.55413C15.9777 4.55413 15.6804 4.29513 15.6804 3.97562V2.44768C15.6804 2.10992 15.365 1.83513 14.9773 1.83513H13.2234C12.8567 1.83513 12.5594 1.57613 12.5594 1.25661C12.5594 0.937101 12.8567 0.678101 13.2234 0.678101H14.9773C16.0974 0.678101 17.0086 1.47191 17.0086 2.44768V3.97562C17.0086 4.29513 16.7113 4.55413 16.3445 4.55413ZM14.6995 3.62282C14.9527 3.39176 14.943 3.02556 14.6778 2.80491C14.4126 2.58427 13.9922 2.59269 13.7389 2.82375C12.1273 4.29401 9.98678 5.10372 7.71171 5.10372H7.31921C6.95245 5.10372 6.65515 5.36272 6.65515 5.68223C6.65515 6.00174 6.95245 6.26075 7.31921 6.26075H7.71171C10.3531 6.26075 12.8348 5.3239 14.6995 3.62282Z" fill="#F80D38"/>
</svg>
