<svg width="92" height="34" viewBox="0 0 92 34" fill="none" xmlns="http://www.w3.org/2000/svg">
<path d="M9.24552 21.254V0C9.24552 0 0 0.569022 0 3.09721V21.254H9.24552Z" fill="#C1272D"/>
<path d="M80.7627 7.27001C78.2504 5.55286 75.3131 4.6381 72.2706 4.61505C56.7702 4.49548 12.2755 4.34711 9.24749 4.17424C4.11621 3.88037 0.00195312 3.51447 0.00195312 3.09814V28.4722C0.00195312 31.5248 2.47684 33.9996 5.52939 33.9996H72.2418C75.3145 33.9996 78.3195 33.1022 80.8881 31.4167L87.8229 26.8674C90.2863 25.2511 91.7816 22.514 91.809 19.5681C91.8363 16.6221 90.3943 13.8563 87.9626 12.1939L80.7627 7.27289V7.27001Z" fill="url(#paint0_linear_1_392)"/>
<path style="mix-blend-mode:overlay" d="M80.7627 7.27001C78.2504 5.55286 75.3131 4.6381 72.2706 4.61505C56.7702 4.49548 12.2755 4.34711 9.24749 4.17424C4.11621 3.88037 0.00195312 3.51447 0.00195312 3.09814V28.4722C0.00195312 31.5247 2.47684 33.9996 5.52939 33.9996H72.2418C75.3145 33.9996 78.3195 33.1022 80.8881 31.4167L87.8229 26.8674C90.2863 25.2511 91.7816 22.514 91.809 19.5681C91.8363 16.6221 90.3943 13.8563 87.9627 12.1939L80.7627 7.27289V7.27001Z" fill="url(#paint1_linear_1_392)"/>
<path d="M17.7598 16.709H15.0098V16.5693C15.0098 14.0986 16.9863 12.0576 20.1123 12.0576C23.0664 12.0576 25.0322 13.7656 25.0322 16.1611C25.0322 17.8691 24.1406 19.0293 22.4541 20.834L19.1455 24.5508V24.6367H25.29V27H15.1924V25.1953L20.5205 19.416C21.4766 18.4062 22.1533 17.5361 22.1533 16.4297C22.1533 15.1836 21.2295 14.3779 19.9834 14.3779C18.6191 14.3779 17.7598 15.377 17.7598 16.5479V16.709ZM27.1162 20.1787V19.1582C27.1162 14.8936 29.125 12.0576 32.6914 12.0576C36.2793 12.0576 38.2129 14.8721 38.2129 19.1582V20.1787C38.2129 24.2607 36.333 27.2793 32.6377 27.2793C29.0605 27.2793 27.1162 24.4326 27.1162 20.1787ZM30.0059 19.1689V20.1572C30.0059 23.2939 31.0479 24.916 32.6592 24.916C34.2812 24.916 35.3125 23.2832 35.3125 20.1572V19.1689C35.3125 16.0537 34.2812 14.4316 32.6592 14.4316C31.0479 14.4316 30.0059 16.043 30.0059 19.1689ZM42.6494 19.3623C40.7158 19.3623 39.5664 17.9658 39.5664 15.8926V15.3877C39.5664 13.3145 40.7373 11.9287 42.6709 11.9287C44.6045 11.9287 45.7432 13.3145 45.7432 15.3877V15.8926C45.7432 17.9014 44.626 19.3623 42.6494 19.3623ZM42.7676 27H40.5332L46.4736 19.3623L51.8125 12.3369H54.0469L48.2031 19.8564L42.7676 27ZM42.6602 17.5684C43.208 17.5684 43.5732 16.999 43.5732 15.8818V15.3984C43.5732 14.292 43.208 13.7119 42.6602 13.7119C42.1016 13.7119 41.7363 14.292 41.7363 15.3984V15.8818C41.7363 16.999 42.1016 17.5684 42.6602 17.5684ZM51.9092 27.1611C49.9863 27.1611 48.8369 25.7646 48.8369 23.6914V23.1865C48.8369 21.1133 50.0078 19.7275 51.9414 19.7275C53.875 19.7275 55.0137 21.1025 55.0137 23.1865V23.6914C55.0137 25.7002 53.8965 27.1611 51.9092 27.1611ZM51.9199 25.3672C52.4785 25.3672 52.8438 24.7979 52.8438 23.6807V23.1973C52.8438 22.0908 52.4785 21.5107 51.9199 21.5107C51.3721 21.5107 51.0068 22.0908 51.0068 23.1973V23.6807C51.0068 24.7979 51.3721 25.3672 51.9199 25.3672Z" fill="white"/>
<defs>
<linearGradient id="paint0_linear_1_392" x1="96.57" y1="18.5482" x2="-5.23737" y2="18.5482" gradientUnits="userSpaceOnUse">
<stop stop-color="#B3140E"/>
<stop offset="0.38" stop-color="#D9281E"/>
<stop offset="0.44" stop-color="#DF3026"/>
<stop offset="0.56" stop-color="#EA3C35"/>
<stop offset="0.67" stop-color="#EE413A"/>
<stop offset="1" stop-color="#FD5B47"/>
</linearGradient>
<linearGradient id="paint1_linear_1_392" x1="92.1778" y1="18.5482" x2="-9.6282" y2="18.5482" gradientUnits="userSpaceOnUse">
<stop stop-color="#535353"/>
<stop offset="0.06" stop-color="#5D5D5D"/>
<stop offset="0.16" stop-color="#797979"/>
<stop offset="0.3" stop-color="#A7A7A7"/>
<stop offset="0.33" stop-color="#B5B5B5"/>
<stop offset="0.78" stop-color="#909090"/>
<stop offset="0.82" stop-color="#767676"/>
<stop offset="0.9" stop-color="#515151"/>
<stop offset="0.96" stop-color="#3A3A3A"/>
<stop offset="1" stop-color="#323232"/>
</linearGradient>
</defs>
</svg>
