<svg width="66" height="66" viewBox="0 0 66 66" fill="none" xmlns="http://www.w3.org/2000/svg">
<path d="M31.6128 4.42653C32.1818 6.19794 32.9429 8.47506 33.8254 10.8651C34.7948 13.4901 35.9153 16.2689 37.0885 18.6698C38.2449 21.0359 39.5101 23.1579 40.8019 24.364L40.8039 24.3658C42.0963 25.5655 44.2997 26.6792 46.7402 27.6698C49.2165 28.6749 52.0655 29.6027 54.7515 30.3914C57.2007 31.1107 59.5288 31.7162 61.3367 32.1644C59.5639 32.7341 57.2834 33.4977 54.8896 34.3822C52.2643 35.3522 49.4859 36.4725 47.0849 37.6463C44.7185 38.8032 42.5968 40.0688 41.3908 41.3606C40.1848 42.6525 39.0682 44.8561 38.077 47.2962C37.0713 49.772 36.1441 52.6202 35.3573 55.3055C34.6408 57.7504 34.0378 60.0744 33.5918 61.8807C33.0224 60.1098 32.2612 57.8334 31.3782 55.4442C30.4083 52.8195 29.287 50.0416 28.1132 47.6405C26.9563 45.274 25.6913 43.1515 24.3998 41.9444C23.1079 40.737 20.9042 39.6196 18.4641 38.6277C15.988 37.6212 13.1386 36.6943 10.4528 35.9071C8.00966 35.1909 5.68744 34.5875 3.88148 34.1414C5.65207 33.574 7.92712 32.8165 10.3144 31.9358C12.9397 30.9673 15.7184 29.8469 18.12 28.6717C20.487 27.5135 22.6095 26.2446 23.8167 24.9456C25.0225 23.6481 26.1396 21.4427 27.1312 19.0011C28.137 16.5243 29.0633 13.6767 29.85 10.9929C30.5656 8.55111 31.1671 6.23049 31.6128 4.42653Z" stroke="#151516" stroke-width="2"/>
</svg>
