<svg width="40" height="40" viewBox="0 0 40 40" fill="none" xmlns="http://www.w3.org/2000/svg">
<path d="M6.90022 3.46849C7.94726 4.21243 9.20198 5.08046 10.5409 5.9594C12.3376 7.13888 14.3018 8.34655 16.1287 9.29786C17.9214 10.2313 19.7009 10.9821 21.093 11.1428L21.0958 11.1432C22.4851 11.2995 24.3874 10.972 26.3457 10.4707C28.3413 9.95994 30.5298 9.2321 32.5491 8.49375C34.0578 7.94212 35.4811 7.38063 36.6729 6.89474C35.9278 7.94373 35.0578 9.20185 34.1768 10.5445C32.9974 12.3418 31.7887 14.3056 30.8375 16.133C29.9042 17.926 29.1539 19.7059 28.9932 21.0981C28.8326 22.4903 29.1588 24.3945 29.6595 26.3529C30.1696 28.3484 30.8976 30.5355 31.6368 32.5535C32.1879 34.0581 32.7481 35.478 33.2341 36.6674C32.1868 35.9237 30.9323 35.0545 29.5929 34.1757C27.796 32.9968 25.8321 31.7898 24.0049 30.8386C22.2118 29.9052 20.4322 29.1545 19.04 28.9929C17.647 28.8313 15.7422 29.1566 13.7833 29.6569C11.7871 30.1667 9.59912 30.8954 7.58054 31.6346C6.07745 32.185 4.65899 32.7446 3.47036 33.2303C4.21431 32.1846 5.08363 30.9325 5.96201 29.5953C7.14198 27.7991 8.35034 25.8353 9.30123 24.0069C10.2344 22.2125 10.9838 20.4297 11.1418 19.0323C11.2996 17.6371 10.973 15.7324 10.4719 13.7729C9.96135 11.7767 9.23305 9.59057 8.49443 7.57363C7.94461 6.07223 7.38519 4.65559 6.90022 3.46849Z" stroke="black" stroke-width="2"/>
</svg>
